<svg width="240" height="276" viewBox="0 0 240 276" fill="none" xmlns="http://www.w3.org/2000/svg">
<path d="M6.71716 120.277C6.71716 82.7953 6.72185 45.3141 6.69373 7.83281C6.69373 6.89999 6.90466 6.68906 7.83748 6.68906C82.8 6.71249 157.762 6.71249 232.72 6.68906C233.653 6.68906 233.864 6.89999 233.864 7.83281C233.841 82.7953 233.841 157.758 233.864 232.716C233.864 233.648 233.653 233.859 232.72 233.859C157.758 233.836 82.7953 233.836 7.83748 233.859C6.90466 233.859 6.69373 233.648 6.69373 232.716C6.72185 195.239 6.71716 157.758 6.71716 120.277ZM179.77 162.225C179.887 162.75 180.005 163.27 180.122 163.795C180.802 166.462 181.462 169.134 182.18 171.792C182.339 172.383 182.227 172.58 181.641 172.716C180.08 173.072 178.533 173.498 176.981 173.892C176.405 174.047 175.833 174.197 175.256 174.352C173.986 174.684 172.716 175.008 171.45 175.355C170.864 175.514 170.559 175.373 170.386 174.736C169.678 172.167 168.919 169.617 168.178 167.058C168.009 166.533 167.841 166.008 167.677 165.478C167.372 164.494 167.025 163.514 166.781 162.516C166.608 161.803 166.341 161.569 165.581 161.784C161.128 163.036 156.666 164.259 152.203 165.459C151.514 165.647 151.383 165.975 151.575 166.617C151.917 167.766 152.198 168.928 152.503 170.086C152.658 170.63 152.812 171.169 152.962 171.712C153.605 174.066 154.228 176.423 154.903 178.767C155.109 179.475 154.964 179.808 154.223 179.995C152.583 180.408 150.961 180.9 149.334 181.359C148.739 181.561 148.139 181.767 147.544 181.969C146.114 182.381 144.675 182.742 143.269 183.22C142.467 183.492 142.186 183.267 141.975 182.489C141.389 180.337 140.719 178.214 140.081 176.077C139.936 175.566 139.791 175.055 139.65 174.544C139.219 173.119 138.759 171.703 138.366 170.269C138.206 169.687 137.972 169.547 137.4 169.753C133.125 171.3 128.841 172.837 124.552 174.347C123.919 174.572 123.919 174.806 124.252 175.308C125.072 176.55 125.798 177.848 126.394 179.217C126.628 179.728 126.862 180.239 127.097 180.745C129.22 185.92 129.895 191.269 129.075 196.805C125.733 194.564 122.391 192.323 118.866 189.961C118.866 193.42 118.87 196.669 118.861 199.917C118.856 200.691 119.405 200.498 119.817 200.48C122.662 200.348 125.508 200.198 128.353 200.053C127.795 202.317 126.811 204.412 125.756 206.475C125.184 207.356 124.612 208.242 124.045 209.123C121.762 212.212 119.044 214.856 115.805 216.933C115.097 217.387 115.341 217.566 115.833 217.941C120.267 221.358 124.912 224.433 129.891 227.006C130.58 227.362 131.264 227.719 131.953 228.075C134.255 229.027 136.627 229.711 139.087 230.128C144.431 231.042 149.808 230.991 155.194 230.77C155.681 230.714 156.169 230.658 156.652 230.602C157.139 230.517 157.627 230.428 158.119 230.353C161.981 229.781 165.708 228.839 169.172 226.922C175.448 223.453 180.853 218.986 185.292 213.361C185.728 212.77 186.164 212.175 186.6 211.584C189.656 207.314 192.37 202.842 194.437 198.005C194.719 197.306 195 196.608 195.281 195.909C196.711 190.627 197.442 185.245 197.541 179.775C197.545 179.161 197.545 178.552 197.55 177.937C197.592 172.059 197.123 166.219 196.322 160.402C196.252 159.872 196.181 159.347 196.111 158.817C196.008 158.208 195.83 157.598 195.816 156.989C195.792 155.967 195.314 155.906 194.452 156.07C190.116 156.895 185.775 157.678 181.43 158.452C178.964 158.892 178.959 158.873 179.559 161.25C179.625 161.578 179.695 161.902 179.77 162.225ZM156.445 85.2609C156.197 84.8062 155.944 84.3516 155.695 83.9016C155.981 83.189 156.558 82.7016 157.055 82.1578C160.627 78.2578 163.05 73.8844 163.064 68.4094C163.069 65.5359 162.591 62.9062 160.448 60.7828C159.778 60.1219 159.436 60.1312 158.878 60.9469C156.497 64.4297 153.6 67.425 150.098 69.8016C149.541 70.1812 149.067 70.5797 148.772 71.1797C148.552 70.8047 148.331 70.4344 148.111 70.0594C148.284 69.5344 148.777 69.3422 149.18 69.075C151.566 67.4719 153.708 65.5875 155.541 63.3844C157.973 60.4547 160.345 57.4641 161.292 53.6531C162.797 47.5922 158.456 41.9297 152.222 41.7656C148.706 41.6719 145.598 42.9281 142.556 44.4891C140.372 45.6094 138.511 47.1984 136.458 48.5109C135.145 46.0828 133.697 43.7297 132.567 41.2078C133.809 39.1969 135.3 37.3687 136.767 35.5266C140.939 30.2672 145.697 25.5234 150.089 20.4562C151.903 18.3656 153.797 16.3078 154.777 13.6453C155.578 11.4844 154.852 9.72656 152.803 8.67187C151.945 8.23124 151.031 7.99218 150.061 7.96874C146.428 7.89374 143.255 9.16874 140.428 11.3578C136.5 14.4 132.708 17.6016 128.981 20.8875C127.289 22.3828 125.822 24.1406 123.895 25.3641C122.864 23.5266 121.889 21.6562 120.783 19.8656C118.041 15.4219 112.978 14.0672 108.366 16.4906C104.78 18.375 101.203 20.2828 97.6218 22.1766C88.7812 26.8594 79.9359 31.5375 71.1 36.2297C67.4718 38.1562 64.6687 40.8937 63.225 44.8125C61.9312 48.3281 62.8078 51.6516 64.3218 54.8859C61.514 55.6969 60.5859 56.775 60.5531 59.2078C60.5437 59.8969 60.6093 60.3094 61.5234 60.0469C62.8734 59.6625 64.2797 59.4797 65.6343 59.1094C66.3703 58.9078 66.7031 59.1609 66.9797 59.7844C67.8375 61.6875 68.4281 63.6797 68.6437 65.7375C68.925 68.4094 67.0172 70.4625 64.5281 70.1109C63.1312 69.9141 63.4031 70.4719 63.5718 71.325C64.7062 77.0109 65.0578 82.725 64.275 88.5C63.8859 91.3687 63.6 94.2609 63.7218 97.1765C63.7547 97.9828 63.9047 98.25 64.7672 98.0203C66.5672 97.5469 68.3906 97.1672 70.2093 96.7734C70.7297 96.6609 71.3718 96.525 71.5359 97.2656C71.6953 97.9922 71.0906 98.1469 70.5515 98.2687C68.7797 98.6812 67.0078 99.1078 65.2265 99.4828C64.575 99.6187 63.8859 99.6844 64.2187 100.589C64.5 101.353 64.139 102.628 65.7422 102.445C67.8 102.211 69.8718 102.141 71.939 102.014C72.5297 101.977 73.2047 101.939 73.2 102.792C73.1953 103.561 72.5437 103.486 72.0093 103.552C69.8343 103.823 67.6265 103.655 65.4515 104.058C65.4609 104.222 65.4375 104.353 65.4797 104.461C65.6203 104.808 65.775 105.145 65.939 105.478C67.6734 109.003 70.0781 112.059 72.6187 115.027C76.1015 119.095 80.2218 122.555 83.714 126.605C91.0687 135.131 93.4781 144.755 89.8312 155.611C89.5078 156.577 89.7937 156.68 90.6562 156.712C98.2218 156.994 105.22 159.183 111.694 163.092C113.78 164.353 115.673 165.877 117.652 167.461C117.75 167.002 117.844 166.683 117.881 166.359C118.42 161.691 119.503 157.153 121.144 152.752C122.316 149.606 123.591 146.512 125.695 143.841C128.634 143.93 131.044 142.491 133.387 141.019C145.495 133.43 157.13 125.123 169.341 117.689C170.958 116.705 171.525 115.177 171.211 113.302C171.033 112.214 170.545 111.267 170.03 110.32C167.705 106.073 165.394 101.817 163.078 97.5609C163.5 95.9719 163.959 94.3922 164.086 92.7469C164.119 92.325 164.409 91.7578 163.95 91.4953C163.561 91.275 163.069 91.5562 162.675 91.7719C160.678 92.8875 159.68 94.7531 158.916 96.7969C158.709 97.35 159.037 97.4016 159.417 97.5281C160.43 97.8703 161.433 98.2406 162.436 98.6016C162.234 98.9016 162.037 99.1969 161.836 99.4969C160.781 98.9015 159.595 98.6812 158.475 98.2781C158.016 98.1094 157.57 97.9406 157.753 97.3406C158.62 94.5047 159.773 91.7344 162.82 90.7453C164.203 90.2953 164.273 89.6719 164.18 88.6125C164.156 88.364 164.18 88.1156 164.161 87.8672C163.936 84.8156 163.641 81.7734 162.431 78.9094C162.141 78.2203 161.916 77.9344 161.344 78.7734C160.111 80.5875 158.695 82.2609 157.214 83.8828C156.834 84.2906 156.562 84.7265 156.445 85.2609ZM202.847 63.0469C202.805 63 202.762 62.9531 202.716 62.9109C202.716 61.8281 202.556 61.6734 202.191 62.0859C201.216 63.1828 200.611 62.7422 199.936 61.8C199.739 61.5234 199.331 61.3406 198.984 61.2469C198.23 61.0359 198.38 60.675 198.67 60.1641C199.537 58.6312 200.62 57.2906 201.994 56.1844C204.492 54.1781 207.291 54.1312 210.244 54.825C212.095 55.2609 213.97 55.6312 215.892 55.5562C216.398 55.5375 217.027 55.4766 217.092 54.9C217.158 54.3141 216.492 54.3281 216.089 54.2156C214.641 53.8219 213.262 53.3484 212.086 52.3406C211.308 51.6703 210.412 51.1078 209.503 50.625C207.862 49.7531 206.123 49.2328 204.244 49.7672C202.434 50.2828 201.164 51.5062 200.142 53.0156C198.952 54.7734 197.789 56.55 196.566 58.3828C195.117 56.2219 193.636 54.1781 191.686 52.5281C190.106 51.1922 188.442 50.7609 186.408 51.5672C183.511 52.7062 181.05 54.7031 178.069 55.6734C177.595 55.8281 177.197 56.2453 177.305 56.8219C177.417 57.4266 177.984 57.5062 178.472 57.5625C180.384 57.7687 182.287 57.5484 183.792 56.3391C186.262 54.3562 191.573 55.5844 193.397 58.2375C193.697 58.6734 194.133 59.0953 193.983 59.7844C193.552 59.5312 193.209 59.2922 192.839 59.1187C191.358 58.4344 189.914 58.5609 188.606 59.5125C187.298 60.4641 186.783 61.8 186.895 63.4219C186.947 64.1578 187.823 64.8281 187.359 65.4516C186.923 66.0375 186.056 66.2906 185.405 66.7312C185.109 66.9328 184.425 67.0406 184.777 67.5609C185.077 68.0062 185.522 67.5328 185.864 67.35C186.417 67.05 186.956 66.7219 187.5 66.4031C187.331 67.3875 186.98 68.1656 186.642 68.9484C186.539 69.1828 186.492 69.4687 186.764 69.6C187.05 69.7359 187.219 69.5062 187.331 69.2719C187.65 68.5969 188.002 67.9359 188.255 67.2375C188.498 66.5672 188.756 66.3703 189.492 66.6984C190.875 67.3172 192.295 67.1859 193.472 66.225C194.114 65.7 194.344 65.9062 194.808 66.3937C196.509 68.189 198.534 68.4844 200.498 67.1203C201.342 66.5344 202.139 66.2859 203.133 66.3797C203.648 66.4312 204.403 66.5015 204.562 65.939C204.745 65.2875 203.934 65.2172 203.527 64.9265C203.484 64.8937 203.484 64.8047 203.466 64.7531C204.084 64.5375 205.13 64.7109 204.98 63.6984C204.844 62.7984 203.925 62.9812 203.231 63.0328C203.095 63.0328 202.969 63.0375 202.847 63.0469ZM215.016 126.291C216.666 126.577 218.311 126.605 219.928 126.094C221.789 125.503 222.914 123.956 222.923 121.987C222.933 120.005 221.925 118.617 220.303 117.628C217.884 116.156 215.358 115.987 212.62 117.305C212.977 116.231 213.314 115.397 213.53 114.534C214.116 112.177 213.159 110.667 210.769 110.166C207.478 109.477 205.083 110.986 203.109 113.414C202.036 114.736 202.055 114.75 200.841 113.667C200.156 113.053 199.378 112.575 198.544 112.205C195.15 110.686 191.62 110.306 187.987 111.07C185.541 111.586 183.394 112.673 181.739 114.628C177.389 119.775 179.405 126.675 185.827 128.569C187.702 129.122 189.623 129.506 191.583 129.37C192.905 129.277 193.378 129.68 193.589 131.044C194.47 136.795 199.828 138.905 204.548 135.464C206.119 134.32 207.192 132.787 208.092 131.067C208.842 131.667 209.592 132.094 210.445 132.323C213.131 133.041 214.889 131.836 215.283 129.08C215.419 128.128 215.119 127.284 214.898 126.408C214.936 126.37 214.978 126.333 215.016 126.291ZM93.0422 223.186C93.375 223.186 93.7125 223.139 94.0359 223.195C95.489 223.439 96.3468 222.82 97.1156 221.569C99.2203 218.137 101.034 214.566 102.811 210.961C103.678 209.198 103.889 207.427 103.683 205.547C103.43 203.231 102.881 200.986 101.962 198.839C97.9172 189.37 88.7531 185.409 79.8 189.23C78.8484 189.637 78.1547 190.195 77.5781 191.072C73.3781 197.461 68.4328 203.17 62.039 207.478C61.1906 208.05 61.6922 208.364 62.0625 208.781C70.3031 218.062 80.7984 222.492 93.0422 223.186ZM49.7484 75.6C49.9078 74.7094 50.0625 73.9828 50.1609 73.2515C50.55 70.3312 49.35 68.0015 46.9687 67.0219C43.8703 65.7469 41.1797 66.3984 39.3187 68.8828C38.6437 69.7828 38.1 70.7625 37.814 71.8547C37.6218 72.5906 37.3265 72.6141 36.7125 72.2812C35.6109 71.6859 34.3968 71.4187 33.1593 71.2453C30.239 70.8422 27.6 72.0984 26.4562 74.4469C25.0218 77.3859 25.5093 80.789 27.6562 82.8375C29.6906 84.7781 29.6906 84.7781 29.5875 87.6281C29.475 90.7969 30.9375 92.3109 34.1015 92.3344C36.975 92.3578 39.389 91.4812 40.9359 88.7859C41.0812 89.1562 41.1843 89.4281 41.2875 89.6953C43.2093 94.6687 48.9 96.1312 53.0531 92.714C54.8906 91.2 55.3453 89.2125 54.3328 87.0516C54.1125 86.5828 53.8593 86.1281 53.5734 85.5797C54.0703 85.5797 54.4406 85.5984 54.8109 85.575C57.9797 85.4016 60.4687 83.1797 60.6562 80.3625C60.839 77.6625 58.4906 75.0469 55.4203 74.5359C53.4609 74.2031 51.6703 74.8594 49.7484 75.6ZM78.8625 168.483C74.789 164.367 70.7531 160.294 66.6984 156.197C66.9375 157.936 67.1765 159.689 67.4203 161.437C67.8656 164.677 68.2922 167.916 68.775 171.145C68.8218 171.473 68.5781 172.294 69.5343 171.933C72.6609 170.756 75.8015 169.612 78.8625 168.483ZM111.994 172.978C111.619 172.791 111.506 172.734 111.398 172.683C107.4 170.691 103.397 168.708 99.4078 166.697C98.775 166.378 98.6437 166.655 98.5172 167.184C98.114 168.83 97.6828 170.47 97.2656 172.111C96.7828 174.005 96.2953 175.898 95.7609 177.989C101.203 176.311 106.411 174.703 111.994 172.978ZM48.7125 192.745C53.3297 193.875 57.6984 194.944 62.0672 196.022C62.564 196.144 62.7281 195.909 62.7937 195.469C63.2484 192.366 63.7172 189.262 64.214 185.934C59.0062 188.222 53.9859 190.43 48.7125 192.745ZM62.1047 124.566C62.0343 123.82 61.4718 123.778 60.9281 123.722C58.2047 123.455 55.7437 125.292 54.7781 128.334C54.3515 129.684 54.1265 131.081 54.0984 132.492C54.0843 133.331 53.8359 133.458 53.0625 133.181C52.3312 132.919 51.5343 132.816 50.7562 132.731C47.5312 132.375 44.1 134.55 42.975 137.592C42.7922 138.084 42.7406 138.516 43.2468 138.759C43.7343 138.994 44.114 138.783 44.3531 138.286C44.55 137.878 44.7703 137.475 45.0187 137.095C46.5609 134.798 48.4312 134.039 51.1172 134.653C52.4531 134.958 53.7328 135.436 54.9703 136.017C55.3406 136.191 55.725 136.397 56.1328 136.078C56.5406 135.764 56.4468 135.356 56.3765 134.944C56.114 133.425 56.0625 131.902 56.1609 130.364C56.3437 127.533 57.7875 124.955 61.1297 125.306C61.65 125.362 62.0062 125.095 62.1047 124.566ZM67.6593 65.8406C67.4859 64.2141 66.9375 62.3578 66.2672 60.5297C66.0984 60.0703 65.8359 60.0375 65.4 60.1453C64.1953 60.4453 62.9906 60.7594 61.7672 60.9375C60.8015 61.0781 60.7828 61.5281 61.0312 62.2875C61.6359 64.1344 62.1984 65.9906 62.7609 67.8469C63.0093 68.6719 63.6093 69.0375 64.3968 69.1547C66.2484 69.4312 67.6406 68.1422 67.6593 65.8406ZM112.772 225.07C111.905 221.32 111.127 217.941 110.348 214.566C110.236 214.078 110.123 213.708 109.467 214.073C107.77 215.016 106.045 215.92 104.32 216.806C103.856 217.045 103.772 217.209 104.198 217.58C106.973 219.989 109.734 222.412 112.772 225.07Z" fill="#FEFEFE"/>
<path d="M125.686 143.836C123.581 146.508 122.306 149.602 121.134 152.747C119.494 157.148 118.416 161.686 117.872 166.355C117.834 166.678 117.741 166.997 117.642 167.456C115.664 165.867 113.77 164.344 111.684 163.088C105.206 159.178 98.2124 156.994 90.6468 156.708C89.789 156.675 89.4984 156.577 89.8218 155.606C93.464 144.75 91.0593 135.127 83.7046 126.6C80.2124 122.55 76.0921 119.091 72.6093 115.022C70.0687 112.055 67.6687 108.998 65.9296 105.473C65.7656 105.141 65.6109 104.798 65.4702 104.456C65.4281 104.348 65.4515 104.217 65.4421 104.053C67.6171 103.65 69.8296 103.819 71.9999 103.547C72.5343 103.481 73.1859 103.556 73.1906 102.788C73.1952 101.934 72.5202 101.972 71.9296 102.009C69.8624 102.136 67.7859 102.206 65.7327 102.441C64.1296 102.623 64.4906 101.348 64.2093 100.584C63.8765 99.6844 64.5656 99.6141 65.2171 99.4781C66.9984 99.1031 68.7702 98.6766 70.5421 98.2641C71.0812 98.1375 71.6812 97.9828 71.5265 97.2609C71.3671 96.5203 70.7249 96.6563 70.1999 96.7688C68.3812 97.1625 66.5531 97.5422 64.7577 98.0156C63.8906 98.2453 63.7452 97.9781 63.7124 97.1719C63.5906 94.2563 63.8765 91.3688 64.2656 88.4953C65.0484 82.7203 64.6968 77.0063 63.5624 71.3203C63.3937 70.4672 63.1218 69.9094 64.5187 70.1063C67.0077 70.4578 68.9156 68.4 68.6343 65.7328C68.4187 63.675 67.8327 61.6828 66.9702 59.7797C66.689 59.1609 66.3609 58.9078 65.6249 59.1047C64.2702 59.475 62.8593 59.6578 61.514 60.0422C60.6046 60.3047 60.5343 59.8922 60.5437 59.2031C60.5765 56.7703 61.5093 55.6969 64.3124 54.8813C66.6046 54.7078 68.3952 55.7063 69.9421 57.2813C71.6109 58.9875 72.8437 61.0031 73.9077 63.1172C76.2702 67.8094 77.8687 72.75 78.689 77.9438C78.6656 78.1875 78.5952 78.4406 78.6281 78.675C79.2702 83.4375 80.189 88.125 81.7968 92.6813C84.2718 99.6844 89.039 104.058 96.2812 105.727L96.2624 105.703C96.2202 105.858 96.2906 105.9 96.4312 105.877C98.3999 107.114 100.148 108.595 101.578 110.447C103.823 113.353 105.033 116.686 105.694 120.253H105.661L105.675 120.225C105.712 120.3 105.75 120.375 105.787 120.45C105.558 120.844 105.694 121.266 105.712 121.669C105.839 124.242 105.53 126.713 104.072 128.925C103.917 129.164 103.809 129.445 103.734 129.722C103.617 130.158 103.467 130.645 103.922 130.978C104.316 131.259 104.723 131.063 105.089 130.856C106.111 130.284 106.805 129.431 107.137 128.311C107.583 126.797 107.822 125.25 107.878 123.67C108.173 124.064 108.487 124.448 108.759 124.861C111.862 129.558 114.876 134.316 118.266 138.811C120.155 141.3 122.405 143.358 125.686 143.836Z" fill="#FD9A1A"/>
<path d="M78.6937 77.9484C77.8687 72.7594 76.2703 67.8141 73.9125 63.1219C72.8484 61.0078 71.6156 58.9969 69.9469 57.2859C68.4047 55.7062 66.6094 54.7078 64.3172 54.8859C62.8031 51.6516 61.9265 48.3281 63.2203 44.8125C64.664 40.8937 67.4625 38.1609 71.0953 36.2297C79.9312 31.5375 88.7765 26.8594 97.6172 22.1766C101.198 20.2781 104.775 18.375 108.361 16.4906C112.973 14.0672 118.036 15.4219 120.778 19.8656C121.884 21.6562 122.855 23.5312 123.891 25.3641C123.947 25.5562 123.975 25.7672 124.069 25.9406C126.061 29.6109 128.039 33.2953 130.073 36.9422C130.87 38.3766 131.456 39.9422 132.567 41.1937C133.697 43.7156 135.145 46.0734 136.458 48.4969C137.798 51.15 139.106 53.8219 140.77 56.2969C140.897 56.8172 141.183 57.2578 141.492 57.6844C140.841 58.65 140.241 59.6531 139.27 60.3516C134.386 51.2766 129.511 42.2016 124.617 33.1312C122.827 29.8172 121.139 26.4375 119.142 23.2547C116.916 19.7016 113.095 18.8812 109.387 20.8312C108.141 21.4875 106.931 22.2047 105.661 22.8047C104.93 23.1516 104.742 23.4844 105.028 24.2906C105.689 26.1844 105.22 27.3656 103.537 28.3875C101.841 29.4187 100.139 30.4453 98.4234 31.4484C93.3515 34.4109 88.3453 37.5 82.9922 39.9516C80.7797 40.9641 79.275 40.5141 77.9953 38.4844C77.6062 37.8703 77.3484 37.9828 76.8515 38.2359C75.4781 38.9344 74.1797 39.7547 73.064 40.8141C70.0594 43.6547 68.175 46.9687 68.9531 51.3C69.3562 53.5359 70.3359 55.5328 71.5359 57.4406C81.1172 72.6422 90.6562 87.8672 100.275 103.041C106.505 112.866 112.725 122.7 119.386 132.244C120.342 133.612 121.434 134.845 122.798 135.825C124.345 136.936 126.028 137.433 127.945 137.109C129.623 136.828 131.086 136.059 132.483 135.183C137.32 132.15 142.134 129.07 146.948 126.005C152.048 122.756 157.144 119.508 162.234 116.25C165.319 114.277 166.167 111.825 164.944 108.361C164.672 107.587 164.334 106.809 163.884 106.125C162.741 104.391 161.873 102.511 160.852 100.711C161.18 100.303 161.508 99.9 161.836 99.4922C162.037 99.1922 162.234 98.8969 162.436 98.5969C162.652 98.25 162.867 97.8984 163.078 97.5516C165.394 101.803 167.705 106.059 170.03 110.311C170.55 111.258 171.033 112.205 171.211 113.292C171.52 115.167 170.953 116.695 169.341 117.68C157.134 125.109 145.495 133.42 133.387 141.009C131.039 142.481 128.634 143.92 125.695 143.831C122.414 143.358 120.164 141.3 118.284 138.811C114.891 134.316 111.877 129.558 108.778 124.861C108.506 124.448 108.192 124.069 107.897 123.675C107.198 122.602 106.505 121.528 105.806 120.45C105.769 120.375 105.731 120.3 105.694 120.225L105.708 120.253C105.042 116.686 103.837 113.353 101.592 110.447C100.162 108.595 98.4187 107.114 96.4453 105.877C96.389 105.82 96.3328 105.759 96.2765 105.703L96.2953 105.727C95.9719 105.047 95.625 104.381 95.0531 103.861C95.0625 103.659 95.0531 103.477 94.7765 103.486L94.7812 103.495C94.9312 103.008 94.5281 102.741 94.3219 102.412C92.2312 99.0984 90.1406 95.7891 88.0172 92.4984C87.3984 91.5375 86.9437 90.4547 86.0765 89.6625C83.6062 85.7625 81.15 81.8578 78.6937 77.9484Z" fill="#48CDFF"/>
<path d="M93.0421 223.186C80.8031 222.492 70.3031 218.063 62.0624 208.781C61.6921 208.359 61.1859 208.05 62.039 207.478C68.4374 203.17 73.3781 197.461 77.5781 191.072C78.1546 190.195 78.8484 189.633 79.7999 189.23C88.7577 185.409 97.9171 189.37 101.962 198.839C102.881 200.986 103.43 203.231 103.683 205.547C103.889 207.422 103.678 209.198 102.811 210.961C101.034 214.566 99.2202 218.138 97.1156 221.569C96.3468 222.825 95.489 223.444 94.0359 223.195C93.7124 223.139 93.3702 223.186 93.0421 223.186Z" fill="#7B7A7A"/>
<path d="M214.894 126.412C215.109 127.289 215.414 128.128 215.278 129.084C214.884 131.841 213.127 133.05 210.441 132.328C209.587 132.098 208.842 131.672 208.087 131.072C207.187 132.797 206.114 134.325 204.544 135.469C199.823 138.909 194.47 136.8 193.584 131.048C193.373 129.684 192.905 129.281 191.578 129.375C189.623 129.516 187.702 129.127 185.822 128.573C179.395 126.684 177.38 119.784 181.734 114.633C183.384 112.678 185.531 111.591 187.983 111.075C191.616 110.306 195.145 110.691 198.539 112.209C199.373 112.584 200.152 113.058 200.836 113.672C202.05 114.755 202.031 114.745 203.105 113.419C205.078 110.986 207.469 109.481 210.764 110.17C213.159 110.672 214.111 112.181 213.525 114.539C213.309 115.402 212.972 116.236 212.616 117.309C215.353 115.987 217.88 116.161 220.298 117.633C221.92 118.617 222.923 120.005 222.919 121.992C222.909 123.961 221.784 125.508 219.923 126.098C218.306 126.609 216.666 126.586 215.011 126.295C214.931 126.187 214.842 126.127 214.744 126.267C214.744 126.272 214.842 126.361 214.894 126.412Z" fill="#FD9A1A"/>
<path d="M49.7484 75.6C51.6703 74.8594 53.4609 74.2031 55.425 74.5313C58.4953 75.0422 60.8437 77.6578 60.6609 80.3578C60.4687 83.1797 57.9844 85.3969 54.8156 85.5703C54.4453 85.5891 54.0703 85.575 53.5781 85.575C53.864 86.1234 54.1172 86.5781 54.3375 87.0469C55.35 89.2078 54.8953 91.2 53.0578 92.7094C48.9047 96.1266 43.214 94.6688 41.2922 89.6906C41.189 89.4234 41.0859 89.1563 40.9406 88.7813C39.3937 91.4766 36.9797 92.3531 34.1062 92.3297C30.9375 92.3016 29.4797 90.7875 29.5922 87.6234C29.6906 84.7734 29.6906 84.7735 27.6609 82.8328C25.514 80.7891 25.0312 77.3813 26.4609 74.4422C27.6047 72.0985 30.2437 70.8375 33.164 71.2406C34.4015 71.4141 35.6156 71.6813 36.7172 72.2766C37.3312 72.6094 37.6265 72.5813 37.8187 71.85C38.1047 70.7625 38.6484 69.7781 39.3234 68.8781C41.1844 66.3938 43.875 65.7422 46.9734 67.0172C49.3547 67.9969 50.5547 70.3313 50.1656 73.2469C50.0578 73.9828 49.9031 74.7047 49.7484 75.6Z" fill="#FD9A1A"/>
<path d="M140.761 56.3063C139.097 53.8313 137.789 51.1594 136.448 48.5063C138.502 47.1984 140.363 45.6047 142.547 44.4844C145.589 42.9234 148.697 41.6672 152.213 41.7609C158.447 41.925 162.792 47.5922 161.283 53.6484C160.336 57.4641 157.964 60.4547 155.531 63.3797C153.698 65.5828 151.556 67.4672 149.17 69.0703C148.767 69.3422 148.275 69.5297 148.102 70.0547C147.145 70.6453 146.142 71.1703 145.5 72.1547C145.003 71.9766 144.755 72.3938 144.436 72.6141C142.978 73.6219 141.506 74.6016 139.889 75.3328C138.244 76.0781 136.57 76.2375 134.869 75.4922C133.519 74.55 132.886 73.1906 132.595 71.625C132.675 70.3969 133.102 69.3047 133.763 68.2688C135.014 66.3141 136.388 64.4484 137.761 62.5828C138.291 61.8656 139.027 61.2797 139.252 60.3562C140.222 59.6578 140.827 58.6547 141.473 57.6891C142.748 56.5781 143.686 55.1719 144.759 53.8828C145.43 53.0813 145.927 52.1719 146.203 51.1688C146.339 50.6813 146.545 50.0109 145.823 49.8047C145.195 49.6266 144.938 50.0953 144.698 50.6625C143.798 52.8234 142.472 54.7078 140.761 56.3063ZM142.978 63.4078C142.181 63.4078 141.722 63.4031 141.305 63.6141C138.769 64.8938 136.795 66.7922 135.22 69.1359C134.953 69.5344 135.033 69.9 135.319 70.2703C136.322 71.5875 137.311 72.9141 138.3 74.2406C138.544 74.5688 138.834 74.7844 139.252 74.5875C141.844 73.3547 144.384 72.0422 146.002 69.5203C146.85 68.1984 146.948 66.8016 146.128 65.4141C145.345 64.0969 144.15 63.4734 142.978 63.4078Z" fill="#FD9A1A"/>
<path d="M185.278 213.366C180.834 218.995 175.43 223.462 169.153 226.931C165.689 228.848 161.962 229.791 158.1 230.363C157.608 230.433 157.12 230.527 156.633 230.606C156.759 230.128 156.506 229.711 156.375 229.294C155.358 226.041 154.284 222.806 153.286 219.548C152.953 218.456 152.841 217.256 151.242 217.425C151.172 216.966 151.584 216.952 151.833 216.82C161.278 211.852 170.855 207.164 180.694 203.016C181.458 202.692 181.73 202.809 181.987 203.616C183.037 206.878 184.172 210.117 185.278 213.366Z" fill="#FD9A1A"/>
<path d="M168.173 167.058C168.914 169.617 169.673 172.167 170.381 174.736C170.555 175.369 170.864 175.514 171.445 175.355C172.711 175.008 173.986 174.684 175.252 174.352C176.072 177.506 176.831 180.68 177.736 183.806C178.069 184.955 177.862 185.447 176.719 185.887C169.256 188.766 161.812 191.7 154.387 194.672C153.473 195.037 153.173 194.939 152.906 193.978C151.753 189.759 150.525 185.564 149.325 181.359C150.956 180.9 152.573 180.412 154.214 179.995C154.959 179.808 155.1 179.475 154.894 178.767C154.219 176.423 153.595 174.066 152.953 171.717C158.03 170.166 163.102 168.609 168.173 167.058Z" fill="#FD9A1A"/>
<path d="M148.767 71.1797C149.062 70.5797 149.536 70.1812 150.094 69.8016C153.595 67.4297 156.492 64.4297 158.873 60.9469C159.431 60.1312 159.773 60.1172 160.444 60.7828C162.586 62.9062 163.064 65.5359 163.059 68.4094C163.05 73.8844 160.622 78.2578 157.05 82.1578C156.553 82.6969 155.977 83.1891 155.691 83.9016C154.758 84.6937 153.83 85.4812 153.23 86.5781C151.997 87.2016 151.355 88.425 150.441 89.3719C148.861 91.0031 147.427 92.8031 145.284 93.7641C143.048 94.7672 141.277 94.2187 139.927 92.1797C138.919 90.6562 138.694 89.0156 139.331 87.3328C139.645 86.4984 139.416 86.1703 138.68 85.8469C137.166 85.1859 135.689 84.4453 134.189 83.7469C129.961 81.7781 125.728 79.8141 121.5 77.8453C119.508 76.6641 117.408 75.7125 115.252 74.8875C113.264 73.9406 111.272 72.9984 109.284 72.0516C107.484 71.0484 105.642 70.1297 103.702 69.4359C102.122 68.5453 100.477 67.8 98.7937 67.125C97.0312 66.0844 95.175 65.2312 93.2672 64.4953C92.7562 64.2328 92.25 63.9562 91.7343 63.7078C89.9109 62.8453 88.0734 62.0156 86.2593 61.1344C85.5234 60.7734 85.0781 60.1641 85.4859 59.3203C85.8656 58.5281 86.5359 58.3266 87.3468 58.6875C87.6843 58.8375 88.0218 58.9922 88.3593 59.1469C90.4125 60.0891 92.4703 61.0266 94.5234 61.9687C96.3 63.0141 98.1703 63.8672 100.087 64.6219C101.864 65.4609 103.636 66.3047 105.412 67.1437C107.245 68.1656 109.144 69.0469 111.094 69.8203C113.339 70.8656 115.589 71.9156 117.834 72.9609C120.342 74.3672 122.944 75.5672 125.606 76.6406C130.523 78.9797 135.441 81.3094 140.344 83.6672C140.878 83.925 141.131 83.7891 141.455 83.3484C143.016 81.2156 144.633 79.1203 146.184 76.9828C146.583 76.4344 147.117 75.9328 147.159 75.1781C148.162 74.0344 148.678 72.6937 148.767 71.1797ZM148.237 81.1031C147.642 81.0844 147.061 81.2203 146.569 81.5062C144.38 82.7766 142.734 84.6234 141.258 86.6344C141.028 86.9437 141.033 87.2437 141.295 87.5344C142.664 89.0297 144.033 90.525 145.406 92.0203C145.669 92.3062 145.955 92.3672 146.278 92.1187C148.453 90.4359 150.558 88.6594 151.687 86.0812C152.747 83.6531 150.909 81.0844 148.237 81.1031Z" fill="#FD9A1A"/>
<path d="M132.558 41.2031C131.452 39.9469 130.866 38.3859 130.064 36.9515C128.03 33.3 126.052 29.6203 124.059 25.95C123.966 25.7765 123.937 25.5656 123.881 25.3734C125.808 24.15 127.275 22.3875 128.967 20.8969C132.694 17.6109 136.486 14.4047 140.414 11.3672C143.241 9.17811 146.409 7.90311 150.047 7.97811C151.012 7.99686 151.931 8.24061 152.789 8.68124C154.842 9.73124 155.564 11.489 154.762 13.6547C153.778 16.3125 151.889 18.3703 150.075 20.4656C145.683 25.5328 140.925 30.2765 136.753 35.5359C135.291 37.364 133.8 39.1922 132.558 41.2031ZM141.094 26.9812C141.112 26.6625 140.972 26.414 140.728 26.2312C138.394 24.5156 136.059 22.8 133.72 21.089C133.327 20.8031 132.937 20.8219 132.623 21.2109C132.286 21.6281 132.478 21.9797 132.811 22.2937C132.9 22.3781 133.003 22.4531 133.102 22.5281C135.267 24.1265 137.433 25.7203 139.598 27.3234C139.945 27.5812 140.302 27.7734 140.742 27.5812C140.986 27.4687 141.089 27.2531 141.094 26.9812Z" fill="#FD9A1A"/>
<path d="M149.325 181.359C150.525 185.564 151.758 189.759 152.906 193.978C153.169 194.944 153.469 195.038 154.387 194.672C161.812 191.7 169.256 188.761 176.719 185.888C177.862 185.447 178.069 184.955 177.736 183.806C176.831 180.675 176.067 177.506 175.252 174.352C175.828 174.197 176.4 174.047 176.977 173.892C177.825 177.206 178.697 180.516 179.508 183.839C179.677 184.538 179.977 184.617 180.544 184.369C180.844 184.238 181.158 184.125 181.467 184.008C186.825 181.988 192.183 179.963 197.536 177.942C197.531 178.556 197.531 179.166 197.527 179.78C194.981 180.727 192.445 181.702 189.886 182.606C189.042 182.906 188.864 183.277 189.15 184.144C190.28 187.584 191.33 191.053 192.412 194.513C192.98 196.317 192.98 196.313 194.775 195.886C194.925 195.848 195.098 195.905 195.262 195.914C194.981 196.613 194.7 197.311 194.419 198.009C194.339 197.995 194.245 197.948 194.175 197.972C190.655 199.036 187.247 200.414 183.825 201.75C183.516 201.872 183.244 202.008 183.412 202.481C184.505 205.505 185.32 208.627 186.577 211.594C186.141 212.184 185.705 212.78 185.273 213.37C184.167 210.122 183.033 206.883 181.983 203.616C181.725 202.809 181.453 202.697 180.689 203.016C170.85 207.164 161.273 211.852 151.828 216.82C151.58 216.952 151.167 216.966 151.237 217.425L151.252 217.42C150.923 217.195 150.75 217.275 150.741 217.678L150.75 217.664C150.277 217.397 149.972 217.809 149.648 217.988C145.308 220.369 140.967 222.755 136.655 225.192C135.047 226.102 133.35 226.875 131.925 228.084C131.236 227.728 130.552 227.372 129.862 227.016C131.245 226.43 132.492 225.619 133.72 224.766C133.791 224.719 133.866 224.667 133.936 224.62C134.105 224.531 134.269 224.438 134.437 224.348C134.592 224.297 134.761 224.264 134.902 224.184C144.028 218.916 153.314 213.942 162.787 209.311C163.552 208.936 163.556 208.575 163.27 207.877C161.662 203.939 160.092 199.988 158.541 196.027C158.264 195.323 158.002 195.07 157.2 195.394C146.85 199.533 136.575 203.864 126.305 208.195C126.07 208.294 125.747 208.397 125.883 208.866C126.628 208.481 126.989 208.791 127.322 209.503C128.564 212.161 129.914 214.767 131.156 217.42C132.183 219.619 133.439 221.714 134.231 224.025C134.03 224.044 133.833 224.077 133.72 224.283C133.641 224.325 133.556 224.367 133.477 224.409C132.787 224.742 132.577 224.288 132.323 223.772C130.134 219.253 127.927 214.748 125.728 210.234C125.555 209.873 125.278 209.522 125.494 209.077C125.733 208.988 126.005 208.852 125.756 208.58C125.508 208.308 125.339 208.556 125.227 208.791C124.823 208.903 124.42 209.016 124.017 209.133C124.589 208.252 125.161 207.366 125.733 206.484C125.855 206.475 125.991 206.494 126.098 206.447C134.273 202.884 142.519 199.486 150.787 196.144C151.491 195.863 151.589 195.558 151.373 194.845C150.417 191.639 149.55 188.409 148.612 185.198C148.294 184.111 148.237 182.93 147.53 181.973C148.13 181.767 148.73 181.561 149.325 181.359ZM186.783 183.825C186.652 183.877 186.502 183.942 186.347 184.003C177.769 187.345 169.195 190.692 160.612 194.02C159.9 194.297 159.816 194.611 160.102 195.309C161.714 199.242 163.298 203.194 164.836 207.155C165.131 207.919 165.389 208.055 166.148 207.694C169.809 205.973 173.489 204.286 177.192 202.65C181.533 200.733 185.958 199.013 190.411 197.372C190.809 197.227 191.475 197.316 191.203 196.472C189.909 192.422 188.653 188.358 187.392 184.298C187.298 183.989 187.195 183.745 186.783 183.825Z" fill="#7B7A7A"/>
<path d="M147.534 181.969C148.242 182.925 148.298 184.106 148.617 185.194C149.555 188.405 150.422 191.634 151.378 194.841C151.589 195.548 151.491 195.853 150.792 196.139C142.523 199.481 134.278 202.88 126.103 206.442C125.995 206.489 125.859 206.466 125.737 206.48C126.792 204.417 127.777 202.322 128.334 200.058C129.853 199.945 131.372 199.833 133.059 199.711C131.597 198.652 130.327 197.733 129.061 196.814C129.886 191.278 129.211 185.925 127.083 180.755C131.414 179.198 135.745 177.637 140.077 176.081C140.714 178.219 141.384 180.342 141.97 182.494C142.181 183.272 142.463 183.497 143.264 183.225C144.661 182.742 146.105 182.377 147.534 181.969Z" fill="#FD9A1A"/>
<path d="M197.536 177.942C192.178 179.962 186.82 181.987 181.467 184.008C181.158 184.125 180.848 184.233 180.544 184.369C179.977 184.617 179.677 184.537 179.508 183.839C178.697 180.516 177.825 177.206 176.977 173.892C178.528 173.494 180.075 173.072 181.636 172.716C182.222 172.58 182.334 172.383 182.175 171.792C181.458 169.134 180.797 166.462 180.117 163.795C185.489 162.558 190.87 161.367 196.303 160.406C197.109 166.223 197.578 172.069 197.536 177.942Z" fill="#FD9A1A"/>
<path d="M202.847 63.0469C202.969 63.0422 203.095 63.0328 203.217 63.0281C203.916 62.9812 204.83 62.7984 204.966 63.6937C205.12 64.7062 204.07 64.5281 203.452 64.7484C203.47 64.8 203.47 64.8937 203.513 64.9219C203.925 65.2125 204.736 65.2875 204.548 65.9344C204.389 66.4969 203.634 66.4265 203.119 66.375C202.13 66.2765 201.328 66.5297 200.484 67.1156C198.52 68.4797 196.495 68.189 194.794 66.389C194.33 65.9015 194.1 65.6953 193.458 66.2203C192.281 67.1812 190.861 67.3125 189.478 66.6937C188.742 66.3656 188.484 66.5625 188.241 67.2328C187.988 67.9312 187.631 68.5922 187.317 69.2672C187.205 69.5015 187.036 69.7359 186.75 69.5953C186.478 69.464 186.525 69.1781 186.628 68.9437C186.966 68.1609 187.322 67.3828 187.486 66.3984C186.942 66.7172 186.408 67.05 185.85 67.3453C185.508 67.5281 185.067 68.0015 184.763 67.5562C184.411 67.0359 185.095 66.9281 185.391 66.7265C186.042 66.2859 186.905 66.0328 187.345 65.4469C187.809 64.8234 186.933 64.1484 186.881 63.4172C186.769 61.7953 187.284 60.4594 188.592 59.5078C189.9 58.5562 191.344 58.4297 192.825 59.114C193.195 59.2875 193.538 59.5265 193.969 59.7797C194.123 59.0906 193.683 58.6687 193.383 58.2328C191.559 55.5797 186.248 54.3515 183.778 56.3344C182.273 57.5437 180.37 57.764 178.458 57.5578C177.97 57.5062 177.403 57.4265 177.291 56.8172C177.183 56.2406 177.586 55.8187 178.055 55.6687C181.031 54.7031 183.492 52.7062 186.394 51.5625C188.433 50.7609 190.097 51.1922 191.672 52.5234C193.622 54.1734 195.103 56.2125 196.552 58.3781C197.77 56.5453 198.938 54.7687 200.128 53.0109C201.15 51.5015 202.42 50.2781 204.23 49.7625C206.109 49.2281 207.848 49.7484 209.489 50.6203C210.398 51.1031 211.294 51.6656 212.072 52.3359C213.248 53.3484 214.631 53.8219 216.075 54.2109C216.478 54.3187 217.148 54.3094 217.078 54.8953C217.013 55.4719 216.384 55.5328 215.878 55.5515C213.956 55.6219 212.081 55.2515 210.23 54.8203C207.277 54.1265 204.478 54.1734 201.98 56.1797C200.602 57.2859 199.523 58.6265 198.656 60.1594C198.366 60.6703 198.22 61.0312 198.97 61.2422C199.317 61.3406 199.725 61.5234 199.922 61.7953C200.597 62.7375 201.202 63.1734 202.177 62.0812C202.542 61.6687 202.706 61.8234 202.702 62.9062C202.655 62.9531 202.561 63.0328 202.566 63.0422C202.664 63.164 202.758 63.1359 202.847 63.0469ZM189.169 63.1922C189.553 63.164 189.834 62.9625 189.844 62.5125C189.853 62.0812 189.619 61.7812 189.188 61.7672C188.766 61.7531 188.466 62.025 188.452 62.4515C188.442 62.864 188.677 63.1453 189.169 63.1922ZM191.775 61.3172C191.705 60.8906 191.456 60.6562 191.016 60.6797C190.575 60.7031 190.317 60.9562 190.341 61.3969C190.364 61.8375 190.673 62.0859 191.086 62.0625C191.494 62.0344 191.756 61.7672 191.775 61.3172Z" fill="#48CDFF"/>
<path d="M131.934 228.08C133.359 226.87 135.056 226.097 136.664 225.187C140.972 222.75 145.317 220.364 149.658 217.983C149.981 217.805 150.286 217.392 150.759 217.659C151.645 219.633 152.086 221.761 152.812 223.791C153.637 226.106 154.134 228.534 155.18 230.775C149.794 230.995 144.417 231.047 139.073 230.133C136.608 229.711 134.236 229.027 131.934 228.08Z" fill="#FD9A1A"/>
<path d="M125.498 209.072C125.283 209.517 125.559 209.869 125.733 210.23C127.931 214.744 130.139 219.248 132.328 223.767C132.581 224.287 132.792 224.742 133.481 224.405C133.561 224.522 133.645 224.639 133.725 224.761C132.497 225.609 131.25 226.425 129.867 227.011C124.889 224.442 120.244 221.362 115.809 217.945C115.317 217.566 115.073 217.387 115.781 216.937C119.016 214.861 121.734 212.217 124.022 209.128C124.425 209.016 124.828 208.903 125.231 208.786C125.32 208.88 125.409 208.973 125.498 209.072Z" fill="#FD9A1A"/>
<path d="M161.827 99.5016C161.498 99.9094 161.17 100.313 160.842 100.72C160.645 100.598 160.458 100.669 160.256 100.734C158.105 101.4 156.736 100.711 156.075 98.6016C155.841 97.8563 155.766 97.0828 155.709 96.3C155.592 94.7672 156.084 93.2859 156.023 91.7672C156.548 89.625 156.844 87.4688 156.45 85.2656C156.567 84.7313 156.839 84.2953 157.209 83.8875C158.686 82.2703 160.106 80.5922 161.339 78.7781C161.906 77.9391 162.136 78.225 162.427 78.9141C163.636 81.7781 163.931 84.8156 164.156 87.8719C164.175 88.1203 164.152 88.3688 164.175 88.6172C164.264 89.6766 164.198 90.3 162.816 90.75C159.773 91.7391 158.62 94.5094 157.748 97.3453C157.566 97.9406 158.011 98.1141 158.47 98.2828C159.586 98.6859 160.772 98.9063 161.827 99.5016Z" fill="#FD9A1A"/>
<path d="M78.8625 168.483C75.8015 169.613 72.6609 170.756 69.5297 171.938C68.5734 172.298 68.8172 171.478 68.7703 171.15C68.2875 167.916 67.8609 164.677 67.4156 161.442C67.1765 159.689 66.9328 157.941 66.6937 156.202C70.7531 160.294 74.789 164.372 78.8625 168.483Z" fill="#7B7A7A"/>
<path d="M111.994 172.978C106.406 174.703 101.203 176.311 95.7609 177.989C96.2953 175.898 96.7828 174.005 97.2656 172.111C97.6875 170.47 98.1141 168.83 98.5172 167.184C98.6437 166.655 98.775 166.378 99.4078 166.697C103.397 168.708 107.4 170.691 111.398 172.683C111.511 172.739 111.619 172.791 111.994 172.978Z" fill="#7B7A7A"/>
<path d="M195.267 195.914C195.103 195.9 194.93 195.848 194.78 195.886C192.984 196.312 192.98 196.317 192.417 194.512C191.334 191.053 190.284 187.589 189.155 184.144C188.869 183.277 189.047 182.902 189.891 182.606C192.45 181.702 194.986 180.727 197.531 179.78C197.423 185.25 196.697 190.631 195.267 195.914Z" fill="#FD9A1A"/>
<path d="M129.056 196.809C130.322 197.728 131.592 198.647 133.055 199.706C131.367 199.833 129.848 199.941 128.33 200.053C125.484 200.198 122.639 200.348 119.794 200.48C119.386 200.498 118.837 200.691 118.837 199.917C118.847 196.669 118.842 193.42 118.842 189.961C122.372 192.328 125.714 194.569 129.056 196.809Z" fill="#7B7A7A"/>
<path d="M48.7125 192.745C53.986 190.43 59.0063 188.222 64.2094 185.934C63.7125 189.258 63.2485 192.361 62.7891 195.469C62.7235 195.914 62.5594 196.144 62.0625 196.022C57.6938 194.948 53.325 193.88 48.7125 192.745Z" fill="#7B7A7A"/>
<path d="M126.38 179.222C125.784 177.853 125.058 176.555 124.237 175.312C123.905 174.811 123.905 174.572 124.537 174.352C128.827 172.842 133.111 171.305 137.386 169.758C137.958 169.552 138.192 169.692 138.352 170.273C138.745 171.708 139.205 173.123 139.636 174.548C135.141 175.884 130.791 177.642 126.38 179.222Z" fill="#FD9A1A"/>
<path d="M152.498 170.091C152.194 168.933 151.912 167.77 151.57 166.622C151.378 165.98 151.505 165.647 152.198 165.464C156.666 164.259 161.123 163.041 165.577 161.789C166.336 161.573 166.603 161.808 166.777 162.52C167.02 163.523 167.367 164.498 167.672 165.483C162.558 166.842 157.537 168.506 152.498 170.091Z" fill="#FD9A1A"/>
<path d="M186.581 211.589C185.32 208.622 184.509 205.5 183.417 202.477C183.248 202.003 183.52 201.867 183.83 201.745C187.251 200.409 190.659 199.031 194.18 197.967C194.25 197.944 194.339 197.991 194.423 198.005C192.351 202.852 189.642 207.319 186.581 211.589Z" fill="#FD9A1A"/>
<path d="M62.1046 124.566C62.0062 125.095 61.65 125.362 61.1343 125.311C57.7921 124.959 56.3484 127.537 56.1656 130.369C56.0671 131.906 56.1187 133.43 56.3812 134.948C56.4515 135.361 56.5406 135.769 56.1375 136.083C55.7296 136.397 55.3453 136.195 54.975 136.022C53.7328 135.441 52.4531 134.962 51.1218 134.658C48.4359 134.044 46.5609 134.798 45.0234 137.1C44.7703 137.475 44.5546 137.878 44.3578 138.291C44.1187 138.787 43.739 138.998 43.2515 138.764C42.7453 138.516 42.7968 138.089 42.9796 137.597C44.1046 134.555 47.5359 132.38 50.7609 132.736C51.539 132.82 52.3406 132.923 53.0671 133.186C53.8406 133.462 54.089 133.336 54.1031 132.497C54.1312 131.086 54.3515 129.689 54.7828 128.339C55.7484 125.297 58.2093 123.459 60.9328 123.727C61.4671 123.773 62.0343 123.82 62.1046 124.566Z" fill="#48CDFF"/>
<path d="M179.77 162.225C179.695 161.902 179.625 161.583 179.545 161.259C178.95 158.883 178.95 158.897 181.416 158.461C185.761 157.687 190.102 156.905 194.437 156.08C195.3 155.916 195.778 155.977 195.802 156.998C195.816 157.612 195.994 158.217 196.097 158.827C190.575 159.581 185.142 160.762 179.77 162.225Z" fill="#FD9A1A"/>
<path d="M67.6593 65.8406C67.6406 68.1422 66.2484 69.4265 64.4015 69.1547C63.614 69.0375 63.014 68.6719 62.7656 67.8469C62.2031 65.9906 61.6359 64.1344 61.0359 62.2875C60.7875 61.5281 60.8015 61.0781 61.7718 60.9375C62.9953 60.7594 64.2046 60.4453 65.4047 60.1453C65.8406 60.0375 66.1031 60.0703 66.2718 60.5297C66.9422 62.3578 67.4906 64.214 67.6593 65.8406Z" fill="#FD9A1A"/>
<path d="M112.772 225.07C109.734 222.412 106.969 219.984 104.194 217.575C103.767 217.205 103.852 217.041 104.316 216.802C106.045 215.916 107.766 215.011 109.462 214.069C110.119 213.703 110.231 214.073 110.344 214.561C111.127 217.945 111.909 221.32 112.772 225.07Z" fill="#7B7A7A"/>
<path d="M179.77 162.225C185.142 160.763 190.575 159.581 196.097 158.822C196.167 159.352 196.238 159.877 196.308 160.406C190.875 161.363 185.494 162.553 180.122 163.791C180.005 163.27 179.888 162.745 179.77 162.225Z" fill="#7B7A7A"/>
<path d="M152.498 170.091C157.542 168.506 162.562 166.842 167.672 165.478C167.841 166.003 168.009 166.533 168.178 167.058C163.106 168.609 158.034 170.166 152.962 171.717C152.803 171.173 152.648 170.63 152.498 170.091Z" fill="#7B7A7A"/>
<path d="M126.38 179.222C130.791 177.642 135.141 175.884 139.641 174.544C139.786 175.055 139.931 175.566 140.077 176.077C135.745 177.633 131.414 179.194 127.083 180.75C126.848 180.239 126.614 179.728 126.38 179.222Z" fill="#7B7A7A"/>
<path d="M155.17 230.775C154.125 228.534 153.628 226.106 152.803 223.791C152.077 221.761 151.641 219.638 150.75 217.659L150.741 217.673C151.041 217.842 151.284 217.898 151.252 217.416L151.237 217.42C152.836 217.252 152.948 218.452 153.281 219.544C154.28 222.802 155.353 226.036 156.37 229.289C156.502 229.711 156.75 230.123 156.628 230.602C156.145 230.663 155.658 230.719 155.17 230.775Z" fill="#7B7A7A"/>
<path d="M163.069 97.5563C162.853 97.9031 162.638 98.2547 162.427 98.6016C161.419 98.2406 160.42 97.8656 159.408 97.5281C159.028 97.4016 158.7 97.35 158.906 96.7969C159.675 94.7531 160.673 92.8875 162.666 91.7719C163.059 91.5516 163.552 91.275 163.941 91.4953C164.4 91.7578 164.109 92.3203 164.077 92.7469C163.95 94.3875 163.491 95.9719 163.069 97.5563Z" fill="#FD9A1A"/>
<path d="M156.445 85.2609C156.839 87.464 156.544 89.6203 156.019 91.7625C155.091 90.0328 154.162 88.3031 153.234 86.5734C153.83 85.4765 154.762 84.6844 155.695 83.8969C155.944 84.3562 156.197 84.8062 156.445 85.2609Z" fill="#48CDFF"/>
<path d="M148.767 71.1797C148.678 72.6891 148.162 74.0344 147.164 75.1781C146.611 74.1703 146.058 73.1672 145.505 72.1594C146.147 71.1797 147.15 70.65 148.106 70.0594C148.322 70.4344 148.547 70.8094 148.767 71.1797Z" fill="#48CDFF"/>
<path d="M95.0437 103.87C95.6156 104.386 95.9625 105.052 96.2859 105.736C89.0437 104.067 84.2812 99.6937 81.8015 92.6906C80.189 88.1344 79.2703 83.4469 78.6328 78.6844C78.6 78.4453 78.6703 78.1969 78.6937 77.9531C81.15 81.8625 83.6062 85.7672 86.0672 89.6766C85.6406 90.6187 85.2703 91.5891 84.7687 92.4891C84.2765 93.3797 84.3375 94.1531 84.7828 95.0484C86.4562 98.3953 89.0297 100.819 92.2828 102.567C93.0609 102.984 93.8062 103.561 94.7719 103.505L94.7672 103.495C94.7297 103.716 94.9312 103.758 95.0437 103.87Z" fill="#FEFEFE"/>
<path d="M105.797 120.455C106.495 121.528 107.189 122.606 107.887 123.68C107.836 125.255 107.592 126.806 107.147 128.316C106.819 129.436 106.125 130.289 105.098 130.861C104.733 131.062 104.325 131.264 103.931 130.983C103.472 130.655 103.627 130.167 103.744 129.727C103.819 129.45 103.922 129.169 104.081 128.93C105.539 126.712 105.848 124.247 105.722 121.673C105.703 121.27 105.562 120.848 105.797 120.455Z" fill="#FEFEFE"/>
<path d="M105.699 120.258L105.685 120.23L105.666 120.258H105.699Z" fill="#FEFEFE"/>
<path d="M96.2672 105.712C96.3234 105.769 96.3797 105.83 96.4359 105.886C96.2953 105.909 96.225 105.862 96.2672 105.712Z" fill="#FEFEFE"/>
<path d="M153.234 86.5781C154.162 88.3078 155.091 90.0375 156.019 91.7672C156.08 93.2859 155.588 94.7672 155.705 96.3C155.766 97.0828 155.841 97.8563 156.07 98.6016C156.731 100.711 158.1 101.405 160.252 100.734C160.453 100.673 160.641 100.598 160.838 100.72C161.855 102.52 162.722 104.4 163.866 106.134C164.316 106.819 164.653 107.597 164.925 108.37C166.148 111.839 165.3 114.291 162.216 116.259C157.125 119.517 152.03 122.766 146.93 126.014C142.111 129.084 137.302 132.159 132.464 135.192C131.067 136.069 129.6 136.837 127.927 137.119C126.009 137.442 124.322 136.945 122.78 135.834C121.416 134.855 120.323 133.622 119.367 132.253C112.706 122.709 106.486 112.875 100.256 103.05C90.6375 87.8766 81.0938 72.6516 71.5172 57.45C70.3172 55.5422 69.3375 53.5453 68.9344 51.3094C68.1562 46.9781 70.0406 43.6641 73.0453 40.8234C74.1609 39.7687 75.4594 38.9484 76.8328 38.2453C77.3297 37.9922 77.5875 37.8797 77.9766 38.4938C79.2563 40.5234 80.7656 40.9734 82.9734 39.9609C88.3266 37.5094 93.3328 34.4203 98.4047 31.4578C100.12 30.4547 101.822 29.4281 103.519 28.3969C105.202 27.375 105.67 26.1938 105.009 24.3C104.728 23.4938 104.916 23.1562 105.642 22.8141C106.912 22.2141 108.127 21.4922 109.369 20.8406C113.077 18.8859 116.897 19.7109 119.123 23.2641C121.12 26.4469 122.808 29.8266 124.598 33.1406C129.492 42.2062 134.367 51.2859 139.252 60.3609C139.027 61.2844 138.286 61.8703 137.761 62.5875C136.388 64.4531 135.014 66.3187 133.762 68.2734C133.102 69.3094 132.675 70.4016 132.595 71.6297C127.453 69.6234 122.536 70.1063 117.83 72.9563C115.584 71.9109 113.334 70.8609 111.089 69.8156C115.992 64.1297 124.102 62.4047 130.875 65.6109C131.592 65.9531 132.305 66.2672 133.134 66.0984C134.428 65.8312 135.417 64.8375 135.595 63.6188C135.816 62.1047 135.202 61.0172 133.673 60.2203C124.411 55.3781 111.586 58.5234 105.412 67.1438C103.636 66.3047 101.864 65.4609 100.087 64.6219C102.586 60.3422 106.092 57.1406 110.583 55.0828C116.32 52.4531 122.245 52.2422 128.273 53.9953C130.467 54.6328 132.375 53.4609 132.534 51.3609C132.647 49.875 131.667 48.6328 129.839 48.1125C121.72 45.8156 113.873 46.425 106.369 50.4047C101.292 53.1 97.4672 57.0844 94.5234 61.9688C92.4703 61.0266 90.4125 60.0891 88.3594 59.1469C88.0219 58.9922 87.6891 58.8375 87.3469 58.6875C86.5312 58.3266 85.8656 58.5234 85.4859 59.3203C85.0781 60.1641 85.5234 60.7781 86.2594 61.1344C88.0687 62.0203 89.9109 62.85 91.7344 63.7078C92.2547 63.9516 92.7562 64.2328 93.2672 64.4953C91.2375 69.0375 89.9766 73.7672 89.7469 78.75C89.7141 79.4953 89.6812 80.2406 90.0609 80.9344C90.6984 82.0969 92.0719 82.7672 93.3047 82.4953C94.7531 82.1766 95.6859 81.0375 95.7703 79.4625C96 75.1594 96.9281 71.0297 98.7891 67.125C100.467 67.8 102.117 68.5453 103.697 69.4359C102.717 71.1141 101.836 72.8391 101.133 74.6578C99.7969 78.1172 98.9719 81.6891 98.7797 85.3875C98.6906 87.1172 99.975 88.4766 101.592 88.575C103.242 88.6781 104.517 87.6281 104.789 85.9359C104.869 85.4438 104.911 84.9516 104.962 84.4547C105.45 79.9875 106.786 75.8203 109.284 72.0516C111.272 72.9984 113.264 73.9406 115.252 74.8875C115.097 75.0797 114.947 75.2719 114.783 75.4547C111.422 79.2188 109.861 83.7234 109.42 88.6594C109.261 90.4641 110.498 91.8516 112.186 92.0016C113.808 92.1422 115.2 90.8906 115.43 89.0906C115.509 88.4766 115.575 87.8531 115.706 87.2531C116.545 83.4469 117.877 79.9406 121.5 77.8453C125.728 79.8094 129.961 81.7734 134.189 83.7469C135.689 84.4453 137.166 85.1859 138.68 85.8469C139.416 86.1703 139.65 86.4984 139.331 87.3328C138.694 89.0156 138.919 90.6516 139.927 92.1797C141.272 94.2188 143.048 94.7672 145.284 93.7641C147.427 92.8031 148.861 91.0078 150.441 89.3719C151.364 88.425 152.002 87.2016 153.234 86.5781ZM133.608 92.1281C133.594 89.4047 131.442 87.2578 128.709 87.2531C125.958 87.2484 123.839 89.3766 123.853 92.1422C123.867 94.8609 126.038 97.0312 128.752 97.0359C131.47 97.0406 133.622 94.8656 133.608 92.1281Z" fill="#FEFEFE"/>
<path d="M94.7719 103.5C93.8015 103.556 93.0609 102.98 92.2828 102.562C89.0297 100.814 86.4562 98.3906 84.7828 95.0437C84.3375 94.1484 84.2719 93.375 84.7687 92.4844C85.2703 91.5844 85.6406 90.6094 86.0672 89.6719C86.939 90.4641 87.389 91.5469 88.0078 92.5078C90.1359 95.7937 92.2265 99.1078 94.3125 102.422C94.5187 102.741 94.9219 103.012 94.7719 103.5Z" fill="#FD9A1A"/>
<path d="M140.761 56.3062C142.477 54.7078 143.798 52.8234 144.703 50.6672C144.942 50.1 145.2 49.6312 145.828 49.8094C146.55 50.0156 146.344 50.6859 146.208 51.1734C145.931 52.1765 145.43 53.0859 144.764 53.8875C143.691 55.1765 142.753 56.5828 141.478 57.6937C141.169 57.2672 140.883 56.8265 140.761 56.3062Z" fill="#FEFEFE"/>
<path d="M95.0438 103.87C94.9313 103.758 94.725 103.716 94.7672 103.495C95.0438 103.481 95.0578 103.669 95.0438 103.87Z" fill="#FD9A1A"/>
<path d="M214.894 126.412C214.842 126.361 214.739 126.277 214.748 126.267C214.847 126.127 214.936 126.187 215.016 126.295C214.978 126.333 214.936 126.37 214.894 126.412Z" fill="#FEFEFE"/>
<path d="M145.5 72.1593C146.053 73.1671 146.606 74.1703 147.159 75.1781C147.117 75.9281 146.583 76.4343 146.184 76.9828C144.633 79.1203 143.016 81.2156 141.455 83.3484C141.131 83.789 140.878 83.925 140.344 83.6671C135.441 81.3093 130.519 78.9796 125.606 76.6406C127.148 76.3406 128.625 76.6406 130.05 77.2078C132.483 78.1734 133.687 77.7609 134.873 75.4968C136.57 76.2421 138.248 76.0781 139.894 75.3375C141.511 74.6062 142.987 73.6312 144.441 72.6187C144.755 72.3984 145.008 71.9812 145.5 72.1593Z" fill="#FEFEFE"/>
<path d="M134.873 75.4969C133.687 77.7609 132.483 78.1734 130.05 77.2078C128.625 76.6406 127.148 76.3359 125.606 76.6406C122.944 75.5625 120.342 74.3672 117.834 72.9609C122.541 70.1156 127.458 69.6328 132.6 71.6391C132.891 73.1953 133.523 74.5547 134.873 75.4969Z" fill="#48CDFF"/>
<path d="M142.978 63.4078C144.15 63.4734 145.35 64.0969 146.128 65.4141C146.944 66.8016 146.845 68.1984 146.002 69.5203C144.389 72.0422 141.844 73.3547 139.252 74.5875C138.834 74.7844 138.544 74.5688 138.3 74.2406C137.311 72.9141 136.322 71.5875 135.319 70.2703C135.033 69.8953 134.953 69.5344 135.22 69.1359C136.791 66.7922 138.769 64.8984 141.305 63.6141C141.722 63.4031 142.181 63.4078 142.978 63.4078ZM142.739 64.425C141.966 64.4344 141.291 64.7297 140.677 65.1703C139.528 65.9859 138.441 66.8719 137.466 67.8937C135.966 69.4641 135.961 69.4594 137.278 71.2266C137.452 71.4562 137.63 71.6859 137.803 71.9203C139.13 73.7062 139.139 73.725 141.056 72.6047C142.669 71.6625 144.272 70.6828 145.191 68.9625C146.287 66.8953 144.933 64.4016 142.739 64.425Z" fill="#FEFEFE"/>
<path d="M94.5281 61.9641C97.4718 57.0797 101.297 53.0906 106.373 50.4C113.878 46.4156 121.725 45.811 129.844 48.1078C131.672 48.6235 132.652 49.8703 132.539 51.3563C132.38 53.4563 130.472 54.6281 128.278 53.9906C122.25 52.2375 116.325 52.4485 110.587 55.0781C106.097 57.136 102.591 60.3375 100.092 64.6172C98.1749 63.8625 96.3046 63.0094 94.5281 61.9641Z" fill="#48CDFF"/>
<path d="M105.412 67.1391C111.586 58.5187 124.411 55.3734 133.673 60.2156C135.202 61.0125 135.816 62.1 135.595 63.6141C135.417 64.8375 134.423 65.8312 133.134 66.0937C132.305 66.2625 131.592 65.9484 130.875 65.6063C124.106 62.4 115.997 64.125 111.089 69.8109C109.144 69.0422 107.245 68.1562 105.412 67.1391Z" fill="#48CDFF"/>
<path d="M109.289 72.0515C106.791 75.8156 105.455 79.9875 104.967 84.4547C104.911 84.9468 104.869 85.4437 104.794 85.9359C104.522 87.6281 103.247 88.6781 101.597 88.575C99.9796 88.4765 98.6953 87.1172 98.7843 85.3875C98.9765 81.689 99.8015 78.1125 101.137 74.6578C101.841 72.839 102.722 71.114 103.702 69.4359C105.652 70.1297 107.489 71.0484 109.289 72.0515Z" fill="#48CDFF"/>
<path d="M121.509 77.8453C117.886 79.9406 116.555 83.4469 115.716 87.2531C115.584 87.8578 115.514 88.4765 115.439 89.0906C115.209 90.8906 113.817 92.1422 112.195 92.0015C110.508 91.8515 109.266 90.464 109.43 88.6594C109.87 83.7234 111.431 79.2187 114.792 75.4547C114.956 75.2719 115.106 75.075 115.261 74.8875C117.417 75.7125 119.517 76.664 121.509 77.8453Z" fill="#48CDFF"/>
<path d="M98.7984 67.125C96.9375 71.0297 96.0047 75.1594 95.7797 79.4625C95.6953 81.0375 94.7625 82.1766 93.314 82.4953C92.0765 82.7672 90.7078 82.0969 90.0703 80.9344C89.6906 80.2406 89.7187 79.4953 89.7562 78.75C89.9859 73.7672 91.2468 69.0328 93.2765 64.4953C95.1843 65.2266 97.0359 66.0844 98.7984 67.125Z" fill="#48CDFF"/>
<path d="M148.237 81.1031C150.909 81.0891 152.747 83.6531 151.683 86.0813C150.553 88.6547 148.448 90.4359 146.273 92.1188C145.95 92.3672 145.664 92.3063 145.402 92.0203C144.033 90.525 142.659 89.0297 141.291 87.5344C141.028 87.2484 141.028 86.9484 141.253 86.6344C142.73 84.6234 144.375 82.7719 146.564 81.5063C147.061 81.2156 147.642 81.0844 148.237 81.1031ZM150.994 84.6703C150.961 83.625 150.455 82.8516 149.555 82.3688C148.509 81.8109 147.441 81.9188 146.494 82.5844C144.961 83.6625 143.686 85.0266 142.495 86.4703C142.205 86.8219 142.186 87.0844 142.509 87.4266C143.503 88.4813 144.487 89.55 145.448 90.6375C145.8 91.0359 146.067 91.0406 146.47 90.6984C147.994 89.4047 149.437 88.0453 150.459 86.3016C150.75 85.7953 151.008 85.2797 150.994 84.6703Z" fill="#FEFEFE"/>
<path d="M141.094 26.9813C141.089 27.2485 140.986 27.4688 140.733 27.5813C140.292 27.7735 139.941 27.5813 139.589 27.3235C137.428 25.7203 135.258 24.1266 133.092 22.5281C132.994 22.4531 132.891 22.3781 132.802 22.2938C132.473 21.9797 132.281 21.6281 132.614 21.211C132.928 20.8219 133.317 20.8031 133.711 21.0891C136.05 22.8 138.384 24.5156 140.719 26.2313C140.972 26.4141 141.108 26.6625 141.094 26.9813Z" fill="#FEFEFE"/>
<path d="M134.236 224.02C133.444 221.709 132.187 219.619 131.161 217.416C129.919 214.758 128.564 212.152 127.327 209.498C126.994 208.786 126.633 208.477 125.887 208.861C125.756 208.392 126.075 208.289 126.309 208.191C136.58 203.859 146.855 199.528 157.205 195.389C158.011 195.066 158.273 195.319 158.545 196.022C160.097 199.983 161.667 203.934 163.275 207.872C163.561 208.575 163.556 208.936 162.792 209.306C153.323 213.933 144.037 218.906 134.906 224.18C134.766 224.259 134.597 224.292 134.442 224.344C134.377 224.231 134.306 224.123 134.236 224.02Z" fill="#FD9A1A"/>
<path d="M186.783 183.825C187.191 183.745 187.298 183.989 187.392 184.294C188.653 188.353 189.914 192.417 191.203 196.467C191.47 197.311 190.805 197.222 190.411 197.367C185.958 199.008 181.533 200.728 177.192 202.645C173.489 204.281 169.814 205.969 166.148 207.689C165.384 208.05 165.131 207.914 164.836 207.15C163.298 203.184 161.714 199.237 160.101 195.305C159.816 194.606 159.9 194.292 160.612 194.016C169.195 190.687 177.773 187.341 186.347 183.998C186.502 183.942 186.656 183.877 186.783 183.825Z" fill="#FD9A1A"/>
<path d="M125.231 208.786C125.348 208.552 125.517 208.303 125.761 208.575C126.009 208.847 125.733 208.983 125.498 209.072C125.409 208.973 125.32 208.88 125.231 208.786Z" fill="#FD9A1A"/>
<path d="M151.256 217.416C151.284 217.898 151.041 217.842 150.745 217.673C150.755 217.27 150.928 217.195 151.256 217.416Z" fill="#FD9A1A"/>
<path d="M133.73 224.278C133.837 224.072 134.034 224.039 134.241 224.02C134.311 224.128 134.381 224.236 134.452 224.344C134.283 224.437 134.119 224.527 133.95 224.616C133.875 224.498 133.8 224.391 133.73 224.278Z" fill="#FD9A1A"/>
<path d="M133.481 224.405C133.566 224.363 133.645 224.32 133.725 224.278C133.795 224.391 133.87 224.503 133.941 224.616C133.87 224.663 133.795 224.714 133.725 224.761C133.645 224.639 133.566 224.522 133.481 224.405Z" fill="#FD9A1A"/>
<path d="M189.169 63.1922C188.677 63.1406 188.437 62.8641 188.452 62.4469C188.466 62.0203 188.766 61.7531 189.187 61.7625C189.619 61.7766 189.853 62.0766 189.844 62.5078C189.834 62.9672 189.558 63.1688 189.169 63.1922Z" fill="#FEFEFE"/>
<path d="M191.775 61.3172C191.756 61.7672 191.494 62.0344 191.086 62.0578C190.673 62.0812 190.364 61.8328 190.341 61.3922C190.317 60.9516 190.575 60.6984 191.016 60.675C191.456 60.6562 191.705 60.8906 191.775 61.3172Z" fill="#FEFEFE"/>
<path d="M202.847 63.0469C202.758 63.1406 202.664 63.1688 202.58 63.0469C202.575 63.0375 202.669 62.9578 202.716 62.9109C202.762 62.9531 202.805 63 202.847 63.0469Z" fill="#FEFEFE"/>
<path d="M133.608 92.1281C133.622 94.8656 131.47 97.0406 128.752 97.0359C126.042 97.0312 123.867 94.8609 123.853 92.1422C123.839 89.3766 125.953 87.2484 128.709 87.2531C131.442 87.2578 133.598 89.4 133.608 92.1281Z" fill="#48CDFF"/>
<path d="M142.744 64.4297C144.933 64.4062 146.287 66.8953 145.186 68.9625C144.267 70.6875 142.664 71.6672 141.052 72.6047C139.134 73.725 139.125 73.7016 137.798 71.9203C137.625 71.6859 137.447 71.4609 137.273 71.2266C135.956 69.464 135.961 69.4687 137.461 67.8937C138.436 66.8719 139.528 65.9859 140.672 65.1703C141.295 64.7297 141.966 64.4344 142.744 64.4297Z" fill="#FD9A1A"/>
<path d="M150.994 84.6703C151.008 85.2797 150.75 85.8 150.455 86.3015C149.433 88.0453 147.989 89.4047 146.466 90.6984C146.062 91.0406 145.8 91.0406 145.444 90.6375C144.483 89.55 143.498 88.4812 142.505 87.4265C142.181 87.0843 142.2 86.8219 142.491 86.4703C143.681 85.0219 144.956 83.6625 146.489 82.5844C147.431 81.9187 148.505 81.8109 149.55 82.3687C150.455 82.8469 150.961 83.6203 150.994 84.6703Z" fill="#FD9A1A"/>
<path d="M49.1406 258.656H50.7812L54.0156 267.586H54.0625C54.0469 267.378 54.026 267.146 54 266.891C53.974 266.635 53.9505 266.346 53.9297 266.023C53.9089 265.695 53.8906 265.326 53.875 264.914C53.8594 264.503 53.8516 264.039 53.8516 263.523V258.656H55.6641V272H54.0078L50.7891 263.305H50.7266C50.7422 263.539 50.763 263.794 50.7891 264.07C50.8151 264.341 50.8385 264.661 50.8594 265.031C50.8802 265.401 50.8984 265.833 50.9141 266.328C50.9297 266.818 50.9375 267.401 50.9375 268.078V272H49.1406V258.656ZM60.5391 272.117C60.3099 272.117 60.0755 272.099 59.8359 272.062C59.6016 272.026 59.3724 271.951 59.1484 271.836C58.9297 271.721 58.7214 271.557 58.5234 271.344C58.3307 271.13 58.1615 270.849 58.0156 270.5C57.8698 270.151 57.7552 269.721 57.6719 269.211C57.5885 268.701 57.5469 268.091 57.5469 267.383V265.695C57.5469 264.997 57.5885 264.401 57.6719 263.906C57.7604 263.406 57.8776 262.987 58.0234 262.648C58.1745 262.31 58.349 262.042 58.5469 261.844C58.7448 261.641 58.9531 261.487 59.1719 261.383C59.3958 261.273 59.625 261.203 59.8594 261.172C60.0938 261.135 60.3229 261.117 60.5469 261.117C60.7604 261.117 60.9818 261.133 61.2109 261.164C61.4401 261.195 61.6641 261.263 61.8828 261.367C62.1016 261.466 62.3073 261.617 62.5 261.82C62.6979 262.018 62.8698 262.286 63.0156 262.625C63.1667 262.964 63.2839 263.385 63.3672 263.891C63.4557 264.391 63.5 264.992 63.5 265.695V267.383C63.5 268.081 63.4557 268.682 63.3672 269.188C63.2786 269.693 63.1589 270.12 63.0078 270.469C62.8568 270.818 62.6823 271.102 62.4844 271.32C62.2865 271.534 62.0781 271.701 61.8594 271.82C61.6406 271.94 61.4167 272.018 61.1875 272.055C60.9635 272.096 60.7474 272.117 60.5391 272.117ZM60.5547 270.594C60.7318 270.594 60.8802 270.549 61 270.461C61.125 270.367 61.224 270.216 61.2969 270.008C61.375 269.799 61.4297 269.526 61.4609 269.188C61.4974 268.844 61.5156 268.419 61.5156 267.914V265.266C61.5156 264.76 61.4974 264.336 61.4609 263.992C61.4297 263.648 61.375 263.372 61.2969 263.164C61.224 262.951 61.125 262.797 61 262.703C60.8802 262.609 60.7318 262.562 60.5547 262.562C60.3672 262.562 60.2083 262.609 60.0781 262.703C59.9531 262.797 59.849 262.951 59.7656 263.164C59.6823 263.372 59.6224 263.648 59.5859 263.992C59.5495 264.336 59.5312 264.76 59.5312 265.266V267.914C59.5312 268.419 59.5495 268.844 59.5859 269.188C59.6224 269.526 59.6823 269.799 59.7656 270.008C59.849 270.216 59.9531 270.367 60.0781 270.461C60.2083 270.549 60.3672 270.594 60.5547 270.594ZM68.7969 258.656H70.8203V272H68.7969V258.656ZM72.9844 261.242H74.5078L74.6875 262.391V262.398C74.8438 262.154 75.0104 261.951 75.1875 261.789C75.3698 261.622 75.5573 261.49 75.75 261.391C75.9427 261.292 76.138 261.221 76.3359 261.18C76.5391 261.138 76.7396 261.117 76.9375 261.117C77.5677 261.117 78.0521 261.339 78.3906 261.781C78.7344 262.219 78.9062 262.878 78.9062 263.758V272H76.9297V263.828C76.9297 263.354 76.8568 263.026 76.7109 262.844C76.5651 262.656 76.3516 262.562 76.0703 262.562C75.8724 262.562 75.6745 262.628 75.4766 262.758C75.2839 262.888 75.112 263.068 74.9609 263.297V272H72.9844V261.242ZM81.1797 262.648H80.3438V261.242H81.3516L81.75 258.453H83.1562V261.242H84.875V262.648H83.1562V269.492C83.1562 269.727 83.1771 269.917 83.2188 270.062C83.2656 270.203 83.3281 270.315 83.4062 270.398C83.4844 270.477 83.5755 270.529 83.6797 270.555C83.7839 270.581 83.8932 270.594 84.0078 270.594C84.2005 270.594 84.3698 270.57 84.5156 270.523C84.6667 270.477 84.8099 270.411 84.9453 270.328V271.422C84.8307 271.562 84.7057 271.677 84.5703 271.766C84.4401 271.854 84.3047 271.927 84.1641 271.984C84.0234 272.036 83.8802 272.073 83.7344 272.094C83.5885 272.115 83.4453 272.125 83.3047 272.125C83.0286 272.125 82.763 272.089 82.5078 272.016C82.2526 271.943 82.026 271.805 81.8281 271.602C81.6302 271.393 81.4714 271.107 81.3516 270.742C81.237 270.378 81.1797 269.904 81.1797 269.32V262.648ZM88.8281 272.117C88.3646 272.117 87.9531 272.031 87.5938 271.859C87.2396 271.688 86.9401 271.419 86.6953 271.055C86.4505 270.69 86.2656 270.224 86.1406 269.656C86.0156 269.083 85.9531 268.396 85.9531 267.594V265.562C85.9531 264.88 86.0026 264.297 86.1016 263.812C86.2057 263.323 86.3385 262.914 86.5 262.586C86.6667 262.253 86.8568 261.99 87.0703 261.797C87.2891 261.604 87.513 261.458 87.7422 261.359C87.9714 261.255 88.1979 261.19 88.4219 261.164C88.651 261.133 88.862 261.117 89.0547 261.117C89.4089 261.117 89.75 261.172 90.0781 261.281C90.4062 261.385 90.6953 261.568 90.9453 261.828C91.1953 262.083 91.3932 262.427 91.5391 262.859C91.6901 263.292 91.7656 263.831 91.7656 264.477C91.7656 264.695 91.7578 264.917 91.7422 265.141C91.7318 265.365 91.7161 265.586 91.6953 265.805C91.6745 266.018 91.6458 266.227 91.6094 266.43C91.5781 266.633 91.5443 266.82 91.5078 266.992H87.9375V268.086C87.9375 268.555 87.9557 268.951 87.9922 269.273C88.0286 269.591 88.0885 269.849 88.1719 270.047C88.2604 270.24 88.3776 270.38 88.5234 270.469C88.6745 270.552 88.862 270.594 89.0859 270.594C89.2057 270.594 89.3229 270.57 89.4375 270.523C89.5521 270.471 89.651 270.388 89.7344 270.273C89.8229 270.159 89.8932 270.008 89.9453 269.82C89.9974 269.628 90.0234 269.391 90.0234 269.109V268.773H91.6719V269.188C91.6719 270.208 91.4271 270.953 90.9375 271.422C90.4531 271.885 89.75 272.117 88.8281 272.117ZM89.9219 265.664C89.9271 265.607 89.9323 265.531 89.9375 265.438C89.9427 265.339 89.9453 265.237 89.9453 265.133C89.9505 265.029 89.9531 264.927 89.9531 264.828C89.9531 264.724 89.9531 264.635 89.9531 264.562C89.9531 263.854 89.8698 263.344 89.7031 263.031C89.5365 262.719 89.2891 262.562 88.9609 262.562C88.7891 262.562 88.638 262.604 88.5078 262.688C88.3776 262.766 88.2708 262.901 88.1875 263.094C88.1042 263.281 88.0417 263.531 88 263.844C87.9583 264.156 87.9375 264.544 87.9375 265.008V265.664H89.9219ZM93.4375 261.242H94.8828L95.0547 262.336C95.2734 261.93 95.5234 261.625 95.8047 261.422C96.0911 261.219 96.3828 261.117 96.6797 261.117C97.2474 261.117 97.6667 261.292 97.9375 261.641C98.2083 261.99 98.3438 262.513 98.3438 263.211C98.3438 263.299 98.3359 263.406 98.3203 263.531C98.3099 263.651 98.2917 263.779 98.2656 263.914C98.2448 264.044 98.2161 264.177 98.1797 264.312C98.1484 264.443 98.1146 264.562 98.0781 264.672H96.7031V263.672C96.7031 263.453 96.6875 263.273 96.6562 263.133C96.6302 262.992 96.5938 262.88 96.5469 262.797C96.5 262.708 96.4453 262.648 96.3828 262.617C96.3203 262.581 96.2526 262.562 96.1797 262.562C96.0234 262.562 95.8776 262.615 95.7422 262.719C95.612 262.818 95.5026 262.958 95.4141 263.141V272H93.4375V261.242ZM99.5938 261.242H101.117L101.297 262.391V262.398C101.453 262.154 101.62 261.951 101.797 261.789C101.979 261.622 102.167 261.49 102.359 261.391C102.552 261.292 102.747 261.221 102.945 261.18C103.148 261.138 103.349 261.117 103.547 261.117C104.177 261.117 104.661 261.339 105 261.781C105.344 262.219 105.516 262.878 105.516 263.758V272H103.539V263.828C103.539 263.354 103.466 263.026 103.32 262.844C103.174 262.656 102.961 262.562 102.68 262.562C102.482 262.562 102.284 262.628 102.086 262.758C101.893 262.888 101.721 263.068 101.57 263.297V272H99.5938V261.242ZM110.156 272.117C109.693 272.117 109.281 272.031 108.922 271.859C108.568 271.688 108.268 271.419 108.023 271.055C107.779 270.69 107.594 270.224 107.469 269.656C107.344 269.083 107.281 268.396 107.281 267.594V265.562C107.281 264.88 107.331 264.297 107.43 263.812C107.534 263.323 107.667 262.914 107.828 262.586C107.995 262.253 108.185 261.99 108.398 261.797C108.617 261.604 108.841 261.458 109.07 261.359C109.299 261.255 109.526 261.19 109.75 261.164C109.979 261.133 110.19 261.117 110.383 261.117C110.737 261.117 111.078 261.172 111.406 261.281C111.734 261.385 112.023 261.568 112.273 261.828C112.523 262.083 112.721 262.427 112.867 262.859C113.018 263.292 113.094 263.831 113.094 264.477C113.094 264.695 113.086 264.917 113.07 265.141C113.06 265.365 113.044 265.586 113.023 265.805C113.003 266.018 112.974 266.227 112.938 266.43C112.906 266.633 112.872 266.82 112.836 266.992H109.266V268.086C109.266 268.555 109.284 268.951 109.32 269.273C109.357 269.591 109.417 269.849 109.5 270.047C109.589 270.24 109.706 270.38 109.852 270.469C110.003 270.552 110.19 270.594 110.414 270.594C110.534 270.594 110.651 270.57 110.766 270.523C110.88 270.471 110.979 270.388 111.062 270.273C111.151 270.159 111.221 270.008 111.273 269.82C111.326 269.628 111.352 269.391 111.352 269.109V268.773H113V269.188C113 270.208 112.755 270.953 112.266 271.422C111.781 271.885 111.078 272.117 110.156 272.117ZM111.25 265.664C111.255 265.607 111.26 265.531 111.266 265.438C111.271 265.339 111.273 265.237 111.273 265.133C111.279 265.029 111.281 264.927 111.281 264.828C111.281 264.724 111.281 264.635 111.281 264.562C111.281 263.854 111.198 263.344 111.031 263.031C110.865 262.719 110.617 262.562 110.289 262.562C110.117 262.562 109.966 262.604 109.836 262.688C109.706 262.766 109.599 262.901 109.516 263.094C109.432 263.281 109.37 263.531 109.328 263.844C109.286 264.156 109.266 264.544 109.266 265.008V265.664H111.25ZM114.992 262.648H114.156V261.242H115.164L115.562 258.453H116.969V261.242H118.688V262.648H116.969V269.492C116.969 269.727 116.99 269.917 117.031 270.062C117.078 270.203 117.141 270.315 117.219 270.398C117.297 270.477 117.388 270.529 117.492 270.555C117.596 270.581 117.706 270.594 117.82 270.594C118.013 270.594 118.182 270.57 118.328 270.523C118.479 270.477 118.622 270.411 118.758 270.328V271.422C118.643 271.562 118.518 271.677 118.383 271.766C118.253 271.854 118.117 271.927 117.977 271.984C117.836 272.036 117.693 272.073 117.547 272.094C117.401 272.115 117.258 272.125 117.117 272.125C116.841 272.125 116.576 272.089 116.32 272.016C116.065 271.943 115.839 271.805 115.641 271.602C115.443 271.393 115.284 271.107 115.164 270.742C115.049 270.378 114.992 269.904 114.992 269.32V262.648ZM126.469 272.117C126.26 272.117 126.034 272.099 125.789 272.062C125.549 272.031 125.307 271.961 125.062 271.852C124.823 271.742 124.591 271.589 124.367 271.391C124.148 271.188 123.953 270.922 123.781 270.594C123.615 270.266 123.479 269.862 123.375 269.383C123.276 268.898 123.227 268.323 123.227 267.656V262.93C123.227 262.258 123.279 261.685 123.383 261.211C123.487 260.732 123.625 260.331 123.797 260.008C123.969 259.68 124.167 259.419 124.391 259.227C124.615 259.034 124.846 258.888 125.086 258.789C125.326 258.685 125.562 258.617 125.797 258.586C126.036 258.555 126.258 258.539 126.461 258.539C126.992 258.539 127.435 258.615 127.789 258.766C128.148 258.911 128.435 259.115 128.648 259.375C128.867 259.63 129.021 259.93 129.109 260.273C129.203 260.617 129.25 260.982 129.25 261.367C129.25 261.654 129.234 261.919 129.203 262.164C129.177 262.404 129.135 262.669 129.078 262.961H127.438V262.281C127.438 261.547 127.357 260.997 127.195 260.633C127.034 260.268 126.797 260.086 126.484 260.086C126.297 260.086 126.133 260.122 125.992 260.195C125.852 260.268 125.734 260.393 125.641 260.57C125.547 260.742 125.474 260.971 125.422 261.258C125.375 261.544 125.352 261.901 125.352 262.328V268.422C125.352 268.839 125.37 269.185 125.406 269.461C125.448 269.737 125.513 269.958 125.602 270.125C125.69 270.292 125.805 270.411 125.945 270.484C126.091 270.552 126.266 270.586 126.469 270.586C126.599 270.586 126.724 270.557 126.844 270.5C126.964 270.438 127.068 270.344 127.156 270.219C127.25 270.089 127.323 269.927 127.375 269.734C127.432 269.536 127.461 269.305 127.461 269.039V267.734H129.312V268.969C129.312 270.042 129.068 270.833 128.578 271.344C128.089 271.854 127.385 272.112 126.469 272.117ZM133.492 272.117C133.263 272.117 133.029 272.099 132.789 272.062C132.555 272.026 132.326 271.951 132.102 271.836C131.883 271.721 131.674 271.557 131.477 271.344C131.284 271.13 131.115 270.849 130.969 270.5C130.823 270.151 130.708 269.721 130.625 269.211C130.542 268.701 130.5 268.091 130.5 267.383V265.695C130.5 264.997 130.542 264.401 130.625 263.906C130.714 263.406 130.831 262.987 130.977 262.648C131.128 262.31 131.302 262.042 131.5 261.844C131.698 261.641 131.906 261.487 132.125 261.383C132.349 261.273 132.578 261.203 132.812 261.172C133.047 261.135 133.276 261.117 133.5 261.117C133.714 261.117 133.935 261.133 134.164 261.164C134.393 261.195 134.617 261.263 134.836 261.367C135.055 261.466 135.26 261.617 135.453 261.82C135.651 262.018 135.823 262.286 135.969 262.625C136.12 262.964 136.237 263.385 136.32 263.891C136.409 264.391 136.453 264.992 136.453 265.695V267.383C136.453 268.081 136.409 268.682 136.32 269.188C136.232 269.693 136.112 270.12 135.961 270.469C135.81 270.818 135.635 271.102 135.438 271.32C135.24 271.534 135.031 271.701 134.812 271.82C134.594 271.94 134.37 272.018 134.141 272.055C133.917 272.096 133.701 272.117 133.492 272.117ZM133.508 270.594C133.685 270.594 133.833 270.549 133.953 270.461C134.078 270.367 134.177 270.216 134.25 270.008C134.328 269.799 134.383 269.526 134.414 269.188C134.451 268.844 134.469 268.419 134.469 267.914V265.266C134.469 264.76 134.451 264.336 134.414 263.992C134.383 263.648 134.328 263.372 134.25 263.164C134.177 262.951 134.078 262.797 133.953 262.703C133.833 262.609 133.685 262.562 133.508 262.562C133.32 262.562 133.161 262.609 133.031 262.703C132.906 262.797 132.802 262.951 132.719 263.164C132.635 263.372 132.576 263.648 132.539 263.992C132.503 264.336 132.484 264.76 132.484 265.266V267.914C132.484 268.419 132.503 268.844 132.539 269.188C132.576 269.526 132.635 269.799 132.719 270.008C132.802 270.216 132.906 270.367 133.031 270.461C133.161 270.549 133.32 270.594 133.508 270.594ZM138.203 261.242H139.727L139.906 262.391V262.398C140.062 262.154 140.229 261.951 140.406 261.789C140.589 261.622 140.776 261.49 140.969 261.391C141.161 261.292 141.357 261.221 141.555 261.18C141.758 261.138 141.958 261.117 142.156 261.117C142.786 261.117 143.271 261.339 143.609 261.781C143.953 262.219 144.125 262.878 144.125 263.758V272H142.148V263.828C142.148 263.354 142.076 263.026 141.93 262.844C141.784 262.656 141.57 262.562 141.289 262.562C141.091 262.562 140.893 262.628 140.695 262.758C140.503 262.888 140.331 263.068 140.18 263.297V272H138.203V261.242ZM146.172 261.242H147.695L147.875 262.391V262.398C148.031 262.154 148.198 261.951 148.375 261.789C148.557 261.622 148.745 261.49 148.938 261.391C149.13 261.292 149.326 261.221 149.523 261.18C149.727 261.138 149.927 261.117 150.125 261.117C150.755 261.117 151.24 261.339 151.578 261.781C151.922 262.219 152.094 262.878 152.094 263.758V272H150.117V263.828C150.117 263.354 150.044 263.026 149.898 262.844C149.753 262.656 149.539 262.562 149.258 262.562C149.06 262.562 148.862 262.628 148.664 262.758C148.471 262.888 148.299 263.068 148.148 263.297V272H146.172V261.242ZM156.734 272.117C156.271 272.117 155.859 272.031 155.5 271.859C155.146 271.688 154.846 271.419 154.602 271.055C154.357 270.69 154.172 270.224 154.047 269.656C153.922 269.083 153.859 268.396 153.859 267.594V265.562C153.859 264.88 153.909 264.297 154.008 263.812C154.112 263.323 154.245 262.914 154.406 262.586C154.573 262.253 154.763 261.99 154.977 261.797C155.195 261.604 155.419 261.458 155.648 261.359C155.878 261.255 156.104 261.19 156.328 261.164C156.557 261.133 156.768 261.117 156.961 261.117C157.315 261.117 157.656 261.172 157.984 261.281C158.312 261.385 158.602 261.568 158.852 261.828C159.102 262.083 159.299 262.427 159.445 262.859C159.596 263.292 159.672 263.831 159.672 264.477C159.672 264.695 159.664 264.917 159.648 265.141C159.638 265.365 159.622 265.586 159.602 265.805C159.581 266.018 159.552 266.227 159.516 266.43C159.484 266.633 159.451 266.82 159.414 266.992H155.844V268.086C155.844 268.555 155.862 268.951 155.898 269.273C155.935 269.591 155.995 269.849 156.078 270.047C156.167 270.24 156.284 270.38 156.43 270.469C156.581 270.552 156.768 270.594 156.992 270.594C157.112 270.594 157.229 270.57 157.344 270.523C157.458 270.471 157.557 270.388 157.641 270.273C157.729 270.159 157.799 270.008 157.852 269.82C157.904 269.628 157.93 269.391 157.93 269.109V268.773H159.578V269.188C159.578 270.208 159.333 270.953 158.844 271.422C158.359 271.885 157.656 272.117 156.734 272.117ZM157.828 265.664C157.833 265.607 157.839 265.531 157.844 265.438C157.849 265.339 157.852 265.237 157.852 265.133C157.857 265.029 157.859 264.927 157.859 264.828C157.859 264.724 157.859 264.635 157.859 264.562C157.859 263.854 157.776 263.344 157.609 263.031C157.443 262.719 157.195 262.562 156.867 262.562C156.695 262.562 156.544 262.604 156.414 262.688C156.284 262.766 156.177 262.901 156.094 263.094C156.01 263.281 155.948 263.531 155.906 263.844C155.865 264.156 155.844 264.544 155.844 265.008V265.664H157.828ZM163.852 272.117C162.945 272.117 162.253 271.745 161.773 271C161.299 270.255 161.062 269.12 161.062 267.594V265.562C161.062 264.88 161.112 264.297 161.211 263.812C161.31 263.323 161.44 262.914 161.602 262.586C161.768 262.253 161.956 261.99 162.164 261.797C162.378 261.604 162.596 261.458 162.82 261.359C163.044 261.255 163.266 261.19 163.484 261.164C163.703 261.133 163.904 261.117 164.086 261.117C164.451 261.117 164.784 261.167 165.086 261.266C165.388 261.359 165.648 261.505 165.867 261.703C166.086 261.896 166.255 262.141 166.375 262.438C166.495 262.734 166.555 263.083 166.555 263.484C166.555 263.734 166.542 263.951 166.516 264.133C166.495 264.31 166.464 264.482 166.422 264.648H164.844V264.289C164.844 263.747 164.779 263.326 164.648 263.023C164.523 262.716 164.315 262.562 164.023 262.562C163.862 262.562 163.721 262.602 163.602 262.68C163.482 262.753 163.38 262.88 163.297 263.062C163.219 263.245 163.159 263.49 163.117 263.797C163.081 264.104 163.062 264.49 163.062 264.953V268.008C163.062 268.477 163.078 268.875 163.109 269.203C163.141 269.531 163.195 269.799 163.273 270.008C163.352 270.211 163.456 270.359 163.586 270.453C163.716 270.547 163.878 270.594 164.07 270.594C164.169 270.594 164.266 270.57 164.359 270.523C164.453 270.471 164.534 270.388 164.602 270.273C164.674 270.159 164.732 270.008 164.773 269.82C164.82 269.628 164.844 269.391 164.844 269.109V268.773H166.547V269.188C166.547 270.208 166.32 270.953 165.867 271.422C165.419 271.885 164.747 272.117 163.852 272.117ZM168.383 262.648H167.547V261.242H168.555L168.953 258.453H170.359V261.242H172.078V262.648H170.359V269.492C170.359 269.727 170.38 269.917 170.422 270.062C170.469 270.203 170.531 270.315 170.609 270.398C170.688 270.477 170.779 270.529 170.883 270.555C170.987 270.581 171.096 270.594 171.211 270.594C171.404 270.594 171.573 270.57 171.719 270.523C171.87 270.477 172.013 270.411 172.148 270.328V271.422C172.034 271.562 171.909 271.677 171.773 271.766C171.643 271.854 171.508 271.927 171.367 271.984C171.227 272.036 171.083 272.073 170.938 272.094C170.792 272.115 170.648 272.125 170.508 272.125C170.232 272.125 169.966 272.089 169.711 272.016C169.456 271.943 169.229 271.805 169.031 271.602C168.833 271.393 168.674 271.107 168.555 270.742C168.44 270.378 168.383 269.904 168.383 269.32V262.648ZM174.492 259.703C174.128 259.703 173.839 259.594 173.625 259.375C173.417 259.156 173.312 258.836 173.312 258.414C173.312 258.18 173.339 257.984 173.391 257.828C173.448 257.667 173.526 257.539 173.625 257.445C173.729 257.346 173.854 257.276 174 257.234C174.146 257.188 174.312 257.164 174.5 257.164C174.891 257.164 175.188 257.263 175.391 257.461C175.594 257.659 175.695 257.977 175.695 258.414C175.695 258.82 175.591 259.138 175.383 259.367C175.18 259.591 174.883 259.703 174.492 259.703ZM173.469 261.242H175.445V272H173.469V261.242ZM180.227 272.117C179.997 272.117 179.763 272.099 179.523 272.062C179.289 272.026 179.06 271.951 178.836 271.836C178.617 271.721 178.409 271.557 178.211 271.344C178.018 271.13 177.849 270.849 177.703 270.5C177.557 270.151 177.443 269.721 177.359 269.211C177.276 268.701 177.234 268.091 177.234 267.383V265.695C177.234 264.997 177.276 264.401 177.359 263.906C177.448 263.406 177.565 262.987 177.711 262.648C177.862 262.31 178.036 262.042 178.234 261.844C178.432 261.641 178.641 261.487 178.859 261.383C179.083 261.273 179.312 261.203 179.547 261.172C179.781 261.135 180.01 261.117 180.234 261.117C180.448 261.117 180.669 261.133 180.898 261.164C181.128 261.195 181.352 261.263 181.57 261.367C181.789 261.466 181.995 261.617 182.188 261.82C182.385 262.018 182.557 262.286 182.703 262.625C182.854 262.964 182.971 263.385 183.055 263.891C183.143 264.391 183.188 264.992 183.188 265.695V267.383C183.188 268.081 183.143 268.682 183.055 269.188C182.966 269.693 182.846 270.12 182.695 270.469C182.544 270.818 182.37 271.102 182.172 271.32C181.974 271.534 181.766 271.701 181.547 271.82C181.328 271.94 181.104 272.018 180.875 272.055C180.651 272.096 180.435 272.117 180.227 272.117ZM180.242 270.594C180.419 270.594 180.568 270.549 180.688 270.461C180.812 270.367 180.911 270.216 180.984 270.008C181.062 269.799 181.117 269.526 181.148 269.188C181.185 268.844 181.203 268.419 181.203 267.914V265.266C181.203 264.76 181.185 264.336 181.148 263.992C181.117 263.648 181.062 263.372 180.984 263.164C180.911 262.951 180.812 262.797 180.688 262.703C180.568 262.609 180.419 262.562 180.242 262.562C180.055 262.562 179.896 262.609 179.766 262.703C179.641 262.797 179.536 262.951 179.453 263.164C179.37 263.372 179.31 263.648 179.273 263.992C179.237 264.336 179.219 264.76 179.219 265.266V267.914C179.219 268.419 179.237 268.844 179.273 269.188C179.31 269.526 179.37 269.799 179.453 270.008C179.536 270.216 179.641 270.367 179.766 270.461C179.896 270.549 180.055 270.594 180.242 270.594ZM184.938 261.242H186.461L186.641 262.391V262.398C186.797 262.154 186.964 261.951 187.141 261.789C187.323 261.622 187.51 261.49 187.703 261.391C187.896 261.292 188.091 261.221 188.289 261.18C188.492 261.138 188.693 261.117 188.891 261.117C189.521 261.117 190.005 261.339 190.344 261.781C190.688 262.219 190.859 262.878 190.859 263.758V272H188.883V263.828C188.883 263.354 188.81 263.026 188.664 262.844C188.518 262.656 188.305 262.562 188.023 262.562C187.826 262.562 187.628 262.628 187.43 262.758C187.237 262.888 187.065 263.068 186.914 263.297V272H184.938V261.242Z" fill="#333333"/>
</svg>
